solid CO_Cap_Sensor_Mount
facet normal -0.017452406437284112 -0.9998476951563914 0.0
  outer loop
    vertex -118.51787519802339 -13.155196094711691 173.33
    vertex -119.43609464347968 -13.139168514672898 174.6
    vertex -119.43609464347968 -13.139168514672898 173.33
  endloop
endfacet
facet normal -0.017452406437284112 -0.9998476951563914 0.0
  outer loop
    vertex -119.43609464347968 -13.139168514672898 174.6
    vertex -118.51787519802339 -13.155196094711691 173.33
    vertex -118.51787519802339 -13.155196094711691 174.6
  endloop
endfacet
facet normal 0.25881904510251713 -0.9659258262890694 0.0
  outer loop
    vertex -114.90070700662201 -12.582292935156877 173.33
    vertex -115.78777398778692 -12.819981816392321 174.6
    vertex -115.78777398778692 -12.819981816392321 173.33
  endloop
endfacet
facet normal 0.25881904510251713 -0.9659258262890694 0.0
  outer loop
    vertex -115.78777398778692 -12.819981816392321 174.6
    vertex -114.90070700662201 -12.582292935156877 173.33
    vertex -114.90070700662201 -12.582292935156877 174.6
  endloop
endfacet
facet normal 0.3907311284892703 -0.9205048534524418 0.0
  outer loop
    vertex -113.18702700662526 -11.924472815598644 173.33
    vertex -114.03238121424259 -12.283304387509016 174.6
    vertex -114.03238121424259 -12.283304387509016 173.33
  endloop
endfacet
facet normal 0.3907311284892703 -0.9205048534524418 0.0
  outer loop
    vertex -114.03238121424259 -12.283304387509016 174.6
    vertex -113.18702700662526 -11.924472815598644 173.33
    vertex -113.18702700662526 -11.924472815598644 174.6
  endloop
endfacet
facet normal 0.1908089953765474 -0.9816271834476636 0.0
  outer loop
    vertex -116.68926045657268 -12.995213034878372 173.33
    vertex -115.78777398778692 -12.819981816392321 174.6
    vertex -116.68926045657271 -12.995213034878372 174.6
  endloop
endfacet
facet normal 0.1908089953765474 -0.9816271834476636 0.0
  outer loop
    vertex -115.78777398778692 -12.819981816392321 174.6
    vertex -116.68926045657268 -12.995213034878372 173.33
    vertex -115.78777398778692 -12.819981816392321 173.33
  endloop
endfacet
facet normal -0.08715574274766727 -0.9961946980917449 0.0
  outer loop
    vertex -119.43609464347968 -13.139168514672898 173.33
    vertex -120.35095932505021 -13.059128226375211 174.6
    vertex -120.35095932505021 -13.059128226375211 173.33
  endloop
endfacet
facet normal -0.08715574274766727 -0.9961946980917449 0.0
  outer loop
    vertex -120.35095932505021 -13.059128226375211 174.6
    vertex -119.43609464347968 -13.139168514672898 173.33
    vertex -119.43609464347968 -13.139168514672898 174.6
  endloop
endfacet
facet normal 0.5150380749100518 -0.8571673007021138 0.0
  outer loop
    vertex -111.58157528850028 -11.034556396571572 173.33
    vertex -112.36876286449488 -11.507546410774495 174.6
    vertex -112.36876286449488 -11.507546410774495 173.33
  endloop
endfacet
facet normal 0.5150380749100518 -0.8571673007021138 0.0
  outer loop
    vertex -112.36876286449488 -11.507546410774495 174.6
    vertex -111.58157528850028 -11.034556396571572 173.33
    vertex -111.58157528850028 -11.034556396571572 174.6
  endloop
endfacet
facet normal 0.32556815445715187 -0.9455185755993185 0.0
  outer loop
    vertex -114.03238121424259 -12.283304387509016 173.33
    vertex -114.90070700662201 -12.582292935156877 174.6
    vertex -114.90070700662201 -12.582292935156877 173.33
  endloop
endfacet
facet normal 0.32556815445715187 -0.9455185755993185 0.0
  outer loop
    vertex -114.90070700662201 -12.582292935156877 174.6
    vertex -114.03238121424259 -12.283304387509016 173.33
    vertex -114.03238121424259 -12.283304387509016 174.6
  endloop
endfacet
facet normal 0.052335956242943744 -0.9986295347545739 0.0
  outer loop
    vertex -118.51787519802339 -13.155196094711691 173.33
    vertex -117.60077446152053 -13.10713288173273 174.6
    vertex -118.51787519802339 -13.155196094711691 174.6
  endloop
endfacet
facet normal 0.052335956242943744 -0.9986295347545739 0.0
  outer loop
    vertex -117.60077446152053 -13.10713288173273 174.6
    vertex -118.51787519802339 -13.155196094711691 173.33
    vertex -117.60077446152053 -13.10713288173273 173.33
  endloop
endfacet
facet normal 0.12186934340513815 -0.9925461516413233 0.0
  outer loop
    vertex -117.60077446152053 -13.10713288173273 173.33
    vertex -116.68926045657271 -12.995213034878372 174.6
    vertex -117.60077446152053 -13.10713288173273 174.6
  endloop
endfacet
facet normal 0.12186934340513815 -0.9925461516413233 0.0
  outer loop
    vertex -116.68926045657271 -12.995213034878372 174.6
    vertex -117.60077446152053 -13.10713288173273 173.33
    vertex -116.68926045657268 -12.995213034878372 173.33
  endloop
endfacet
facet normal 0.4539904997395432 -0.8910065241883699 0.0
  outer loop
    vertex -112.36876286449488 -11.507546410774495 173.33
    vertex -113.18702700662526 -11.924472815598644 174.6
    vertex -113.18702700662526 -11.924472815598644 173.33
  endloop
endfacet
facet normal 0.4539904997395432 -0.8910065241883699 0.0
  outer loop
    vertex -113.18702700662526 -11.924472815598644 174.6
    vertex -112.36876286449488 -11.507546410774495 173.33
    vertex -112.36876286449488 -11.507546410774495 174.6
  endloop
endfacet
facet normal 0.0 0.0 1.0
  outer loop
    vertex -119.89422553847947 13.107132881732682 174.6
    vertex -118.05890535652031 13.139168514672862 174.6
    vertex -118.9771248019766 13.155196094711654 174.6
  endloop
endfacet
facet normal 0.0 0.0 1.0
  outer loop
    vertex -118.05890535652031 13.139168514672862 174.6
    vertex -119.89422553847947 13.107132881732682 174.6
    vertex -117.14404067494978 13.059128226375176 174.6
  endloop
endfacet
facet normal 0.0 0.0 1.0
  outer loop
    vertex -117.14404067494978 13.059128226375176 174.6
    vertex -119.89422553847947 13.107132881732682 174.6
    vertex -120.80573954342731 12.995213034878326 174.6
  endloop
endfacet
facet normal 0.0 0.0 1.0
  outer loop
    vertex -117.14404067494978 13.059128226375176 174.6
    vertex -120.80573954342731 12.995213034878326 174.6
    vertex -116.23698788603168 12.91546517805759 174.6
  endloop
endfacet
facet normal 0.0 0.0 1.0
  outer loop
    vertex -116.23698788603168 12.91546517805759 174.6
    vertex -120.80573954342731 12.995213034878326 174.6
    vertex -121.70722601221308 12.819981816392279 174.6
  endloop
endfacet
facet normal 0.0 0.0 1.0
  outer loop
    vertex -116.23698788603168 12.91546517805759 174.6
    vertex -121.70722601221308 12.819981816392279 174.6
    vertex -115.34216605977709 12.708879281650514 174.6
  endloop
endfacet
facet normal 0.0 0.0 1.0
  outer loop
    vertex -115.34216605977709 12.708879281650514 174.6
    vertex -121.70722601221308 12.819981816392279 174.6
    vertex -122.59429299337796 12.58229293515683 174.6
  endloop
endfacet
facet normal 0.0 0.0 1.0
  outer loop
    vertex -115.34216605977709 12.708879281650514 174.6
    vertex -122.59429299337796 12.58229293515683 174.6
    vertex -114.46393467817627 12.440377002875309 174.6
  endloop
endfacet
facet normal 0.0 0.0 1.0
  outer loop
    vertex -114.46393467817627 12.440377002875309 174.6
    vertex -122.59429299337796 12.58229293515683 174.6
    vertex -123.4626187857574 12.283304387508954 174.6
  endloop
endfacet
facet normal 0.0 0.0 1.0
  outer loop
    vertex -114.46393467817627 12.440377002875309 174.6
    vertex -123.4626187857574 12.283304387508954 174.6
    vertex -113.60657239624092 12.111266457844424 174.6
  endloop
endfacet
facet normal 0.0 0.0 1.0
  outer loop
    vertex -113.60657239624092 12.111266457844424 174.6
    vertex -123.4626187857574 12.283304387508954 174.6
    vertex -124.3079729933747 11.924472815598577 174.6
  endloop
endfacet
facet normal 0.0 0.0 1.0
  outer loop
    vertex -113.60657239624092 12.111266457844424 174.6
    vertex -124.3079729933747 11.924472815598577 174.6
    vertex -112.7742561968268 11.723151040051174 174.6
  endloop
endfacet
facet normal 0.0 0.0 1.0
  outer loop
    vertex -112.7742561968268 11.723151040051174 174.6
    vertex -124.3079729933747 11.924472815598577 174.6
    vertex -125.1262371355051 11.507546410774431 174.6
  endloop
endfacet
facet normal 0.0 0.0 1.0
  outer loop
    vertex -112.7742561968268 11.723151040051174 174.6
    vertex -125.1262371355051 11.507546410774431 174.6
    vertex -111.9710410407934 11.277921608797808 174.6
  endloop
endfacet
facet normal 0.0 0.0 1.0
  outer loop
    vertex -111.9710410407934 11.277921608797808 174.6
    vertex -125.1262371355051 11.507546410774431 174.6
    vertex -125.91342471149969 11.034556396571498 174.6
  endloop
endfacet
facet normal 0.0 0.0 1.0
  outer loop
    vertex -111.9710410407934 11.277921608797808 174.6
    vertex -125.91342471149969 11.034556396571498 174.6
    vertex -111.20084011164197 10.777747277119106 174.6
  endloop
endfacet
facet normal 0.0 0.0 1.0
  outer loop
    vertex -111.20084011164197 10.777747277119106 174.6
    vertex -125.91342471149969 11.034556396571498 174.6
    vertex -126.66570062261611 10.50780713279421 174.6
  endloop
endfacet
facet normal 0.0 0.0 1.0
  outer loop
    vertex -111.20084011164197 10.777747277119106 174.6
    vertex -126.66570062261611 10.50780713279421 174.6
    vertex -110.46740575087905 10.225064844081631 174.6
  endloop
endfacet
facet normal 0.0 0.0 1.0
  outer loop
    vertex -110.46740575087905 10.225064844081631 174.6
    vertex -126.66570062261611 10.50780713279421 174.6
    vertex -127.37939985623389 9.929864888907016 174.6
  endloop
endfacet
facet normal 0.0 0.0 1.0
  outer loop
    vertex -110.46740575087905 10.225064844081631 174.6
    vertex -127.37939985623389 9.929864888907016 174.6
    vertex -109.77431117698566 9.622566922943731 174.6
  endloop
endfacet
facet normal 0.0 0.0 1.0
  outer loop
    vertex -109.77431117698566 9.622566922943731 174.6
    vertex -127.37939985623389 9.929864888907016 174.6
    vertex -128.05104534142757 9.30354534142767 174.6
  endloop
endfacet
facet normal 0.0 0.0 1.0
  outer loop
    vertex -109.77431117698566 9.622566922943731 174.6
    vertex -128.05104534142757 9.30354534142767 174.6
    vertex -109.12493307705621 8.973188823014278 174.6
  endloop
endfacet
facet normal 0.0 0.0 1.0
  outer loop
    vertex -109.12493307705621 8.973188823014278 174.6
    vertex -128.05104534142757 9.30354534142767 174.6
    vertex -128.677364888907 8.631899856233936 174.6
  endloop
endfacet
facet normal 0.0 0.0 1.0
  outer loop
    vertex -109.12493307705621 8.973188823014278 174.6
    vertex -128.677364888907 8.631899856233936 174.6
    vertex -108.52243515591832 8.280094249120898 174.6
  endloop
endfacet
facet normal 0.0 0.0 1.0
  outer loop
    vertex -108.52243515591832 8.280094249120898 174.6
    vertex -128.677364888907 8.631899856233936 174.6
    vertex -129.25530713279417 7.91820062261616 174.6
  endloop
endfacet
facet normal 0.0 0.0 1.0
  outer loop
    vertex -108.52243515591832 8.280094249120898 174.6
    vertex -129.25530713279417 7.91820062261616 174.6
    vertex -107.96975272288084 7.546659888357954 174.6
  endloop
endfacet
facet normal 0.0 0.0 1.0
  outer loop
    vertex -107.96975272288084 7.546659888357954 174.6
    vertex -129.25530713279417 7.91820062261616 174.6
    vertex -129.78205639657145 7.16592471149975 174.6
  endloop
endfacet
facet normal 0.0 0.0 1.0
  outer loop
    vertex -107.96975272288084 7.546659888357954 174.6
    vertex -129.78205639657145 7.16592471149975 174.6
    vertex -107.46957839120213 6.776458959206534 174.6
  endloop
endfacet
facet normal 0.0 0.0 1.0
  outer loop
    vertex -107.46957839120213 6.776458959206534 174.6
    vertex -129.78205639657145 7.16592471149975 174.6
    vertex -130.25504641077438 6.37873713550514 174.6
  endloop
endfacet
facet normal 0.0 0.0 1.0
  outer loop
    vertex -107.46957839120213 6.776458959206534 174.6
    vertex -130.25504641077438 6.37873713550514 174.6
    vertex -107.02434895994875 5.973243803173137 174.6
  endloop
endfacet
facet normal 0.0 0.0 1.0
  outer loop
    vertex -107.02434895994875 5.973243803173137 174.6
    vertex -130.25504641077438 6.37873713550514 174.6
    vertex -130.67197281559856 5.5604729933747725 174.6
  endloop
endfacet
facet normal 0.0 0.0 1.0
  outer loop
    vertex -107.02434895994875 5.973243803173137 174.6
    vertex -130.67197281559856 5.5604729933747725 174.6
    vertex -106.63623354215551 5.140927603759047 174.6
  endloop
endfacet
facet normal 0.0 0.0 1.0
  outer loop
    vertex -106.63623354215551 5.140927603759047 174.6
    vertex -130.67197281559856 5.5604729933747725 174.6
    vertex -131.03080438750894 4.715118785757469 174.6
  endloop
endfacet
facet normal 0.0 0.0 1.0
  outer loop
    vertex -106.63623354215551 5.140927603759047 174.6
    vertex -131.03080438750894 4.715118785757469 174.6
    vertex -106.30712299712464 4.283565321823668 174.6
  endloop
endfacet
facet normal 0.0 0.0 1.0
  outer loop
    vertex -106.30712299712464 4.283565321823668 174.6
    vertex -131.03080438750894 4.715118785757469 174.6
    vertex -131.3297929351568 3.8467929933780307 174.6
  endloop
endfacet
facet normal 0.0 0.0 1.0
  outer loop
    vertex -106.30712299712464 4.283565321823668 174.6
    vertex -131.3297929351568 3.8467929933780307 174.6
    vertex -106.03862071834943 3.4053339402228473 174.6
  endloop
endfacet
facet normal 0.0 0.0 1.0
  outer loop
    vertex -106.03862071834943 3.4053339402228473 174.6
    vertex -131.3297929351568 3.8467929933780307 174.6
    vertex -131.56748181639225 2.9597260122131406 174.6
  endloop
endfacet
facet normal 0.0 0.0 1.0
  outer loop
    vertex -106.03862071834943 3.4053339402228473 174.6
    vertex -131.56748181639225 2.9597260122131406 174.6
    vertex -105.83203482194236 2.510512113968238 174.6
  endloop
endfacet
facet normal 0.0 0.0 1.0
  outer loop
    vertex -105.83203482194236 2.510512113968238 174.6
    vertex -131.56748181639225 2.9597260122131406 174.6
    vertex -131.7427130348783 2.058239543427367 174.6
  endloop
endfacet
facet normal 0.0 0.0 1.0
  outer loop
    vertex -105.83203482194236 2.510512113968238 174.6
    vertex -131.7427130348783 2.058239543427367 174.6
    vertex -118.74749999999997 1.999999999999981 174.6
  endloop
endfacet
facet normal 0.0 0.0 1.0
  outer loop
    vertex -118.74749999999997 1.999999999999981 174.6
    vertex -131.7427130348783 2.058239543427367 174.6
    vertex -131.85463288173267 1.1467255384795303 174.6
  endloop
endfacet
facet normal 0.0 0.0 1.0
  outer loop
    vertex -118.74749999999997 1.999999999999981 174.6
    vertex -131.85463288173267 1.1467255384795303 174.6
    vertex -119.26513809020501 1.9318516525781173 174.6
  endloop
endfacet
facet normal 0.0 0.0 1.0
  outer loop
    vertex -119.26513809020501 1.9318516525781173 174.6
    vertex -131.85463288173267 1.1467255384795303 174.6
    vertex -119.74749999999997 1.7320508075688585 174.6
  endloop
endfacet
facet normal 0.0 0.0 1.0
  outer loop
    vertex -119.74749999999997 1.7320508075688585 174.6
    vertex -131.85463288173267 1.1467255384795303 174.6
    vertex -120.16171356237307 1.414213562373076 174.6
  endloop
endfacet
facet normal 0.0 0.0 1.0
  outer loop
    vertex -120.16171356237307 1.414213562373076 174.6
    vertex -131.85463288173267 1.1467255384795303 174.6
    vertex -120.47955080756884 0.9999999999999798 174.6
  endloop
endfacet
facet normal 0.0 0.0 1.0
  outer loop
    vertex -120.47955080756884 0.9999999999999798 174.6
    vertex -131.85463288173267 1.1467255384795303 174.6
    vertex -131.90269609471162 0.22962480197667587 174.6
  endloop
endfacet
facet normal 0.0 0.0 1.0
  outer loop
    vertex -120.47955080756884 0.9999999999999798 174.6
    vertex -131.90269609471162 0.22962480197667587 174.6
    vertex -120.67935165257809 0.5176380902050216 174.6
  endloop
endfacet
facet normal 0.0 0.0 1.0
  outer loop
    vertex -120.67935165257809 0.5176380902050216 174.6
    vertex -131.90269609471162 0.22962480197667587 174.6
    vertex -120.74749999999996 -1.973976537783528e-14 174.6
  endloop
endfacet
facet normal 0.0 0.0 1.0
  outer loop
    vertex -120.74749999999996 -1.973976537783528e-14 174.6
    vertex -131.90269609471162 0.22962480197667587 174.6
    vertex -131.88666851467283 -0.688594643479612 174.6
  endloop
endfacet
facet normal 0.0 0.0 1.0
  outer loop
    vertex -120.74749999999996 -1.973976537783528e-14 174.6
    vertex -131.88666851467283 -0.688594643479612 174.6
    vertex -120.67935165257809 -0.5176380902050597 174.6
  endloop
endfacet
facet normal 0.0 0.0 1.0
  outer loop
    vertex -120.67935165257809 -0.5176380902050597 174.6
    vertex -131.88666851467283 -0.688594643479612 174.6
    vertex -120.47955080756884 -1.000000000000018 174.6
  endloop
endfacet
facet normal 0.0 0.0 1.0
  outer loop
    vertex -120.47955080756884 -1.000000000000018 174.6
    vertex -131.88666851467283 -0.688594643479612 174.6
    vertex -131.80662822637518 -1.6034593250501574 174.6
  endloop
endfacet
facet normal 0.0 0.0 1.0
  outer loop
    vertex -120.47955080756884 -1.000000000000018 174.6
    vertex -131.80662822637518 -1.6034593250501574 174.6
    vertex -120.16171356237307 -1.4142135623731156 174.6
  endloop
endfacet
facet normal 0.0 0.0 1.0
  outer loop
    vertex -120.16171356237307 -1.4142135623731156 174.6
    vertex -131.80662822637518 -1.6034593250501574 174.6
    vertex -119.74749999999997 -1.732050807568898 174.6
  endloop
endfacet
facet normal 0.0 0.0 1.0
  outer loop
    vertex -119.74749999999997 -1.732050807568898 174.6
    vertex -131.80662822637518 -1.6034593250501574 174.6
    vertex -131.6629651780576 -2.510512113968228 174.6
  endloop
endfacet
facet normal 0.0 0.0 1.0
  outer loop
    vertex -119.74749999999997 -1.732050807568898 174.6
    vertex -131.6629651780576 -2.510512113968228 174.6
    vertex -119.26513809020501 -1.9318516525781555 174.6
  endloop
endfacet
facet normal 0.0 0.0 1.0
  outer loop
    vertex -119.26513809020501 -1.9318516525781555 174.6
    vertex -131.6629651780576 -2.510512113968228 174.6
    vertex -118.74749999999997 -2.000000000000016 174.6
  endloop
endfacet
facet normal 0.0 0.0 1.0
  outer loop
    vertex -118.74749999999997 -2.000000000000016 174.6
    vertex -131.6629651780576 -2.510512113968228 174.6
    vertex -105.83990257436466 -2.508982777820265 174.6
  endloop
endfacet
facet normal 0.0 0.0 1.0
  outer loop
    vertex -105.83990257436466 -2.508982777820265 174.6
    vertex -131.6629651780576 -2.510512113968228 174.6
    vertex -105.92751818360767 -2.959726012213142 174.6
  endloop
endfacet
facet normal 0.0 0.0 1.0
  outer loop
    vertex -105.92751818360767 -2.959726012213142 174.6
    vertex -131.6629651780576 -2.510512113968228 174.6
    vertex -131.4563792816505 -3.405333940222839 174.6
  endloop
endfacet
facet normal 0.0 0.0 1.0
  outer loop
    vertex -105.92751818360767 -2.959726012213142 174.6
    vertex -131.4563792816505 -3.405333940222839 174.6
    vertex -106.16520706484312 -3.846792993378032 174.6
  endloop
endfacet
facet normal 0.0 0.0 1.0
  outer loop
    vertex -106.16520706484312 -3.846792993378032 174.6
    vertex -131.4563792816505 -3.405333940222839 174.6
    vertex -131.18787700287533 -4.283565321823661 174.6
  endloop
endfacet
facet normal 0.0 0.0 1.0
  outer loop
    vertex -106.16520706484312 -3.846792993378032 174.6
    vertex -131.18787700287533 -4.283565321823661 174.6
    vertex -106.464195612491 -4.715118785757465 174.6
  endloop
endfacet
facet normal 0.0 0.0 1.0
  outer loop
    vertex -106.464195612491 -4.715118785757465 174.6
    vertex -131.18787700287533 -4.283565321823661 174.6
    vertex -130.85876645784444 -5.140927603759044 174.6
  endloop
endfacet
facet normal 0.0 0.0 1.0
  outer loop
    vertex -106.464195612491 -4.715118785757465 174.6
    vertex -130.85876645784444 -5.140927603759044 174.6
    vertex -106.82302718440135 -5.560472993374772 174.6
  endloop
endfacet
facet normal 0.0 0.0 1.0
  outer loop
    vertex -106.82302718440135 -5.560472993374772 174.6
    vertex -130.85876645784444 -5.140927603759044 174.6
    vertex -130.4706510400512 -5.973243803173125 174.6
  endloop
endfacet
facet normal 0.0 0.0 1.0
  outer loop
    vertex -106.82302718440135 -5.560472993374772 174.6
    vertex -130.4706510400512 -5.973243803173125 174.6
    vertex -107.23995358922554 -6.378737135505147 174.6
  endloop
endfacet
facet normal 0.0 0.0 1.0
  outer loop
    vertex -107.23995358922554 -6.378737135505147 174.6
    vertex -130.4706510400512 -5.973243803173125 174.6
    vertex -130.02542160879784 -6.776458959206528 174.6
  endloop
endfacet
facet normal 0.0 0.0 1.0
  outer loop
    vertex -107.23995358922554 -6.378737135505147 174.6
    vertex -130.02542160879784 -6.776458959206528 174.6
    vertex -107.71294360342846 -7.165924711499753 174.6
  endloop
endfacet
facet normal 0.0 0.0 1.0
  outer loop
    vertex -107.71294360342846 -7.165924711499753 174.6
    vertex -130.02542160879784 -6.776458959206528 174.6
    vertex -129.52524727711912 -7.546659888357951 174.6
  endloop
endfacet
facet normal 0.0 0.0 1.0
  outer loop
    vertex -107.71294360342846 -7.165924711499753 174.6
    vertex -129.52524727711912 -7.546659888357951 174.6
    vertex -108.23969286720576 -7.918200622616171 174.6
  endloop
endfacet
facet normal 0.0 0.0 1.0
  outer loop
    vertex -108.23969286720576 -7.918200622616171 174.6
    vertex -129.52524727711912 -7.546659888357951 174.6
    vertex -128.97256484408166 -8.280094249120893 174.6
  endloop
endfacet
facet normal 0.0 0.0 1.0
  outer loop
    vertex -108.23969286720576 -7.918200622616171 174.6
    vertex -128.97256484408166 -8.280094249120893 174.6
    vertex -108.81763511109293 -8.631899856233947 174.6
  endloop
endfacet
facet normal 0.0 0.0 1.0
  outer loop
    vertex -108.81763511109293 -8.631899856233947 174.6
    vertex -128.97256484408166 -8.280094249120893 174.6
    vertex -128.37006692294375 -8.97318882301428 174.6
  endloop
endfacet
facet normal 0.0 0.0 1.0
  outer loop
    vertex -108.81763511109293 -8.631899856233947 174.6
    vertex -128.37006692294375 -8.97318882301428 174.6
    vertex -109.44395465857235 -9.303545341427684 174.6
  endloop
endfacet
facet normal 0.0 0.0 1.0
  outer loop
    vertex -109.44395465857235 -9.303545341427684 174.6
    vertex -128.37006692294375 -8.97318882301428 174.6
    vertex -127.72068882301431 -9.622566922943742 174.6
  endloop
endfacet
facet normal 0.0 0.0 1.0
  outer loop
    vertex -109.44395465857235 -9.303545341427684 174.6
    vertex -127.72068882301431 -9.622566922943742 174.6
    vertex -110.11560014376607 -9.929864888907094 174.6
  endloop
endfacet
facet normal 0.0 0.0 1.0
  outer loop
    vertex -110.11560014376607 -9.929864888907094 174.6
    vertex -127.72068882301431 -9.622566922943742 174.6
    vertex -127.02759424912094 -10.225064844081638 174.6
  endloop
endfacet
facet normal 0.0 0.0 1.0
  outer loop
    vertex -110.11560014376607 -9.929864888907094 174.6
    vertex -127.02759424912094 -10.225064844081638 174.6
    vertex -110.82929937738388 -10.50780713279429 174.6
  endloop
endfacet
facet normal 0.0 0.0 1.0
  outer loop
    vertex -110.82929937738388 -10.50780713279429 174.6
    vertex -127.02759424912094 -10.225064844081638 174.6
    vertex -126.294159888358 -10.777747277119108 174.6
  endloop
endfacet
facet normal 0.0 0.0 1.0
  outer loop
    vertex -110.82929937738388 -10.50780713279429 174.6
    vertex -126.294159888358 -10.777747277119108 174.6
    vertex -111.58157528850028 -11.034556396571572 174.6
  endloop
endfacet
facet normal 0.0 0.0 1.0
  outer loop
    vertex -111.58157528850028 -11.034556396571572 174.6
    vertex -126.294159888358 -10.777747277119108 174.6
    vertex -125.5239589592066 -11.277921608797822 174.6
  endloop
endfacet
facet normal 0.0 0.0 1.0
  outer loop
    vertex -111.58157528850028 -11.034556396571572 174.6
    vertex -125.5239589592066 -11.277921608797822 174.6
    vertex -112.36876286449488 -11.507546410774495 174.6
  endloop
endfacet
facet normal 0.0 0.0 1.0
  outer loop
    vertex -112.36876286449488 -11.507546410774495 174.6
    vertex -125.5239589592066 -11.277921608797822 174.6
    vertex -124.72074380317316 -11.723151040051183 174.6
  endloop
endfacet
facet normal 0.0 0.0 1.0
  outer loop
    vertex -112.36876286449488 -11.507546410774495 174.6
    vertex -124.72074380317316 -11.723151040051183 174.6
    vertex -113.18702700662526 -11.924472815598644 174.6
  endloop
endfacet
facet normal 0.0 0.0 1.0
  outer loop
    vertex -113.18702700662526 -11.924472815598644 174.6
    vertex -124.72074380317316 -11.723151040051183 174.6
    vertex -123.88842760375908 -12.111266457844446 174.6
  endloop
endfacet
facet normal 0.0 0.0 1.0
  outer loop
    vertex -113.18702700662526 -11.924472815598644 174.6
    vertex -123.88842760375908 -12.111266457844446 174.6
    vertex -114.03238121424259 -12.283304387509016 174.6
  endloop
endfacet
facet normal 0.0 0.0 1.0
  outer loop
    vertex -114.03238121424259 -12.283304387509016 174.6
    vertex -123.88842760375908 -12.111266457844446 174.6
    vertex -123.03106532182372 -12.440377002875334 174.6
  endloop
endfacet
facet normal 0.0 0.0 1.0
  outer loop
    vertex -114.03238121424259 -12.283304387509016 174.6
    vertex -123.03106532182372 -12.440377002875334 174.6
    vertex -114.90070700662201 -12.582292935156877 174.6
  endloop
endfacet
facet normal 0.0 0.0 1.0
  outer loop
    vertex -114.90070700662201 -12.582292935156877 174.6
    vertex -123.03106532182372 -12.440377002875334 174.6
    vertex -122.1528339402229 -12.708879281650532 174.6
  endloop
endfacet
facet normal 0.0 0.0 1.0
  outer loop
    vertex -114.90070700662201 -12.582292935156877 174.6
    vertex -122.1528339402229 -12.708879281650532 174.6
    vertex -115.78777398778692 -12.819981816392321 174.6
  endloop
endfacet
facet normal 0.0 0.0 1.0
  outer loop
    vertex -115.78777398778692 -12.819981816392321 174.6
    vertex -122.1528339402229 -12.708879281650532 174.6
    vertex -121.2580121139683 -12.91546517805761 174.6
  endloop
endfacet
facet normal 0.0 0.0 1.0
  outer loop
    vertex -115.78777398778692 -12.819981816392321 174.6
    vertex -121.2580121139683 -12.91546517805761 174.6
    vertex -116.68926045657271 -12.995213034878372 174.6
  endloop
endfacet
facet normal 0.0 0.0 1.0
  outer loop
    vertex -116.68926045657271 -12.995213034878372 174.6
    vertex -121.2580121139683 -12.91546517805761 174.6
    vertex -120.35095932505021 -13.059128226375211 174.6
  endloop
endfacet
facet normal 0.0 0.0 1.0
  outer loop
    vertex -116.68926045657271 -12.995213034878372 174.6
    vertex -120.35095932505021 -13.059128226375211 174.6
    vertex -117.60077446152053 -13.10713288173273 174.6
  endloop
endfacet
facet normal 0.0 0.0 1.0
  outer loop
    vertex -117.60077446152053 -13.10713288173273 174.6
    vertex -120.35095932505021 -13.059128226375211 174.6
    vertex -119.43609464347968 -13.139168514672898 174.6
  endloop
endfacet
facet normal 0.0 0.0 1.0
  outer loop
    vertex -117.60077446152053 -13.10713288173273 174.6
    vertex -119.43609464347968 -13.139168514672898 174.6
    vertex -118.51787519802339 -13.155196094711691 174.6
  endloop
endfacet
facet normal -0.4226182617407065 -0.9063077870366468 0.0
  outer loop
    vertex -123.88842760375908 -12.111266457844446 173.33
    vertex -124.72074380317316 -11.723151040051183 174.6
    vertex -124.72074380317316 -11.723151040051183 173.33
  endloop
endfacet
facet normal -0.4226182617407065 -0.9063077870366468 0.0
  outer loop
    vertex -124.72074380317316 -11.723151040051183 174.6
    vertex -123.88842760375908 -12.111266457844446 173.33
    vertex -123.88842760375908 -12.111266457844446 174.6
  endloop
endfacet
facet normal -0.5446390350150303 -0.838670567945422 0.0
  outer loop
    vertex -126.294159888358 -10.777747277119108 173.33
    vertex -125.5239589592066 -11.277921608797822 174.6
    vertex -126.294159888358 -10.777747277119108 174.6
  endloop
endfacet
facet normal -0.5446390350150303 -0.838670567945422 0.0
  outer loop
    vertex -125.5239589592066 -11.277921608797822 174.6
    vertex -126.294159888358 -10.777747277119108 173.33
    vertex -125.5239589592066 -11.277921608797822 173.33
  endloop
endfacet
facet normal -0.6018150231520509 -0.7986355100472908 0.0
  outer loop
    vertex -126.294159888358 -10.777747277119108 173.33
    vertex -127.02759424912094 -10.225064844081638 174.6
    vertex -127.02759424912094 -10.225064844081638 173.33
  endloop
endfacet
facet normal -0.6018150231520509 -0.7986355100472908 0.0
  outer loop
    vertex -127.02759424912094 -10.225064844081638 174.6
    vertex -126.294159888358 -10.777747277119108 173.33
    vertex -126.294159888358 -10.777747277119108 174.6
  endloop
endfacet
facet normal -0.29237170472273627 -0.9563047559630358 0.0
  outer loop
    vertex -123.03106532182372 -12.440377002875334 173.33
    vertex -122.1528339402229 -12.708879281650532 174.6
    vertex -123.03106532182372 -12.440377002875334 174.6
  endloop
endfacet
facet normal -0.29237170472273627 -0.9563047559630358 0.0
  outer loop
    vertex -122.1528339402229 -12.708879281650532 174.6
    vertex -123.03106532182372 -12.440377002875334 173.33
    vertex -122.1528339402229 -12.708879281650532 173.33
  endloop
endfacet
facet normal -0.1564344650402324 -0.9876883405951375 0.0
  outer loop
    vertex -121.2580121139683 -12.91546517805761 173.33
    vertex -120.35095932505021 -13.059128226375211 174.6
    vertex -121.2580121139683 -12.91546517805761 174.6
  endloop
endfacet
facet normal -0.1564344650402324 -0.9876883405951375 0.0
  outer loop
    vertex -120.35095932505021 -13.059128226375211 174.6
    vertex -121.2580121139683 -12.91546517805761 173.33
    vertex -120.35095932505021 -13.059128226375211 173.33
  endloop
endfacet
facet normal -0.2249510543438691 -0.9743700647852344 0.0
  outer loop
    vertex -122.1528339402229 -12.708879281650532 173.33
    vertex -121.2580121139683 -12.91546517805761 174.6
    vertex -122.1528339402229 -12.708879281650532 174.6
  endloop
endfacet
facet normal -0.2249510543438691 -0.9743700647852344 0.0
  outer loop
    vertex -121.2580121139683 -12.91546517805761 174.6
    vertex -122.1528339402229 -12.708879281650532 173.33
    vertex -121.2580121139683 -12.91546517805761 173.33
  endloop
endfacet
facet normal -0.35836794954530676 -0.9335804264971994 0.0
  outer loop
    vertex -123.03106532182372 -12.440377002875334 173.33
    vertex -123.88842760375908 -12.111266457844446 174.6
    vertex -123.88842760375908 -12.111266457844446 173.33
  endloop
endfacet
facet normal -0.35836794954530676 -0.9335804264971994 0.0
  outer loop
    vertex -123.88842760375908 -12.111266457844446 174.6
    vertex -123.03106532182372 -12.440377002875334 173.33
    vertex -123.03106532182372 -12.440377002875334 174.6
  endloop
endfacet
facet normal -0.48480962024633883 -0.8746197071393949 0.0
  outer loop
    vertex -125.5239589592066 -11.277921608797822 173.33
    vertex -124.72074380317316 -11.723151040051183 174.6
    vertex -125.5239589592066 -11.277921608797822 174.6
  endloop
endfacet
facet normal -0.48480962024633883 -0.8746197071393949 0.0
  outer loop
    vertex -124.72074380317316 -11.723151040051183 174.6
    vertex -125.5239589592066 -11.277921608797822 173.33
    vertex -124.72074380317316 -11.723151040051183 173.33
  endloop
endfacet
facet normal -0.7986355100472957 -0.6018150231520446 0.0
  outer loop
    vertex -128.97256484408166 -8.280094249120893 174.6
    vertex -129.52524727711912 -7.546659888357951 173.33
    vertex -128.97256484408166 -8.280094249120893 173.33
  endloop
endfacet
facet normal -0.7986355100472957 -0.6018150231520446 0.0
  outer loop
    vertex -129.52524727711912 -7.546659888357951 173.33
    vertex -128.97256484408166 -8.280094249120893 174.6
    vertex -129.52524727711912 -7.546659888357951 174.6
  endloop
endfacet
facet normal -0.7547095802227748 -0.6560590289905041 0.0
  outer loop
    vertex -128.37006692294375 -8.97318882301428 174.6
    vertex -128.97256484408166 -8.280094249120893 173.33
    vertex -128.37006692294375 -8.97318882301428 173.33
  endloop
endfacet
facet normal -0.7547095802227748 -0.6560590289905041 0.0
  outer loop
    vertex -128.97256484408166 -8.280094249120893 173.33
    vertex -128.37006692294375 -8.97318882301428 174.6
    vertex -128.97256484408166 -8.280094249120893 174.6
  endloop
endfacet
facet normal -0.6560590289905108 -0.7547095802227691 0.0
  outer loop
    vertex -127.72068882301431 -9.622566922943737 173.33
    vertex -127.02759424912094 -10.225064844081638 174.6
    vertex -127.72068882301431 -9.622566922943742 174.6
  endloop
endfacet
facet normal -0.6560590289905108 -0.7547095802227691 0.0
  outer loop
    vertex -127.02759424912094 -10.225064844081638 174.6
    vertex -127.72068882301431 -9.622566922943737 173.33
    vertex -127.02759424912094 -10.225064844081638 173.33
  endloop
endfacet
facet normal -0.9961946980917462 -0.08715574274765099 0.0
  outer loop
    vertex -131.80662822637518 -1.6034593250501574 174.6
    vertex -131.88666851467283 -0.688594643479612 173.33
    vertex -131.80662822637518 -1.6034593250501574 173.33
  endloop
endfacet
facet normal -0.9961946980917462 -0.08715574274765099 0.0
  outer loop
    vertex -131.88666851467283 -0.688594643479612 173.33
    vertex -131.80662822637518 -1.6034593250501574 174.6
    vertex -131.88666851467283 -0.688594643479612 174.6
  endloop
endfacet
facet normal -0.9335804264972031 -0.3583679495452972 0.0
  outer loop
    vertex -130.85876645784444 -5.140927603759044 174.6
    vertex -131.18787700287533 -4.283565321823661 173.33
    vertex -130.85876645784444 -5.140927603759038 173.33
  endloop
endfacet
facet normal -0.9335804264972031 -0.3583679495452972 0.0
  outer loop
    vertex -131.18787700287533 -4.283565321823661 173.33
    vertex -130.85876645784444 -5.140927603759044 174.6
    vertex -131.18787700287533 -4.283565321823661 174.6
  endloop
endfacet
facet normal -0.9998476951563913 -0.01745240643728002 0.0
  outer loop
    vertex -131.88666851467283 -0.688594643479612 174.6
    vertex -131.90269609471162 0.22962480197667587 173.33
    vertex -131.88666851467283 -0.688594643479612 173.33
  endloop
endfacet
facet normal -0.9998476951563913 -0.01745240643728002 0.0
  outer loop
    vertex -131.90269609471162 0.22962480197667587 173.33
    vertex -131.88666851467283 -0.688594643479612 174.6
    vertex -131.90269609471162 0.22962480197667587 174.6
  endloop
endfacet
facet normal -0.9986295347545737 0.05233595624295095 0.0
  outer loop
    vertex -131.90269609471162 0.22962480197667587 174.6
    vertex -131.85463288173267 1.1467255384795332 173.33
    vertex -131.90269609471162 0.22962480197667587 173.33
  endloop
endfacet
facet normal -0.9986295347545737 0.05233595624295095 0.0
  outer loop
    vertex -131.85463288173267 1.1467255384795332 173.33
    vertex -131.90269609471162 0.22962480197667587 174.6
    vertex -131.85463288173267 1.1467255384795303 174.6
  endloop
endfacet
facet normal -0.8386705679454258 -0.5446390350150245 0.0
  outer loop
    vertex -129.52524727711912 -7.546659888357951 174.6
    vertex -130.02542160879784 -6.776458959206528 173.33
    vertex -129.52524727711912 -7.546659888357951 173.33
  endloop
endfacet
facet normal -0.8386705679454258 -0.5446390350150245 0.0
  outer loop
    vertex -130.02542160879784 -6.776458959206528 173.33
    vertex -129.52524727711912 -7.546659888357951 174.6
    vertex -130.02542160879784 -6.776458959206528 174.6
  endloop
endfacet
facet normal -0.7071067811865515 -0.7071067811865436 0.0
  outer loop
    vertex -127.72068882301431 -9.622566922943742 174.6
    vertex -128.37006692294375 -8.97318882301428 173.33
    vertex -127.72068882301431 -9.622566922943737 173.33
  endloop
endfacet
facet normal -0.7071067811865515 -0.7071067811865436 0.0
  outer loop
    vertex -128.37006692294375 -8.97318882301428 173.33
    vertex -127.72068882301431 -9.622566922943742 174.6
    vertex -128.37006692294375 -8.97318882301428 174.6
  endloop
endfacet
facet normal -0.8746197071393986 -0.48480962024633223 0.0
  outer loop
    vertex -130.02542160879784 -6.776458959206528 174.6
    vertex -130.4706510400512 -5.973243803173125 173.33
    vertex -130.02542160879784 -6.776458959206528 173.33
  endloop
endfacet
facet normal -0.8746197071393986 -0.48480962024633223 0.0
  outer loop
    vertex -130.4706510400512 -5.973243803173125 173.33
    vertex -130.02542160879784 -6.776458959206528 174.6
    vertex -130.4706510400512 -5.973243803173125 174.6
  endloop
endfacet
facet normal -0.9063077870366524 -0.4226182617406946 0.0
  outer loop
    vertex -130.4706510400512 -5.973243803173125 174.6
    vertex -130.85876645784444 -5.140927603759038 173.33
    vertex -130.4706510400512 -5.973243803173125 173.33
  endloop
endfacet
facet normal -0.9063077870366524 -0.4226182617406946 0.0
  outer loop
    vertex -130.85876645784444 -5.140927603759038 173.33
    vertex -130.4706510400512 -5.973243803173125 174.6
    vertex -130.85876645784444 -5.140927603759044 174.6
  endloop
endfacet
facet normal -0.9563047559630368 -0.2923717047227326 0.0
  outer loop
    vertex -131.18787700287533 -4.283565321823661 174.6
    vertex -131.4563792816505 -3.405333940222839 173.33
    vertex -131.18787700287533 -4.283565321823661 173.33
  endloop
endfacet
facet normal -0.9563047559630368 -0.2923717047227326 0.0
  outer loop
    vertex -131.4563792816505 -3.405333940222839 173.33
    vertex -131.18787700287533 -4.283565321823661 174.6
    vertex -131.4563792816505 -3.405333940222839 174.6
  endloop
endfacet
facet normal -0.9743700647852368 -0.2249510543438591 0.0
  outer loop
    vertex -131.4563792816505 -3.405333940222839 174.6
    vertex -131.6629651780576 -2.510512113968228 173.33
    vertex -131.4563792816505 -3.405333940222839 173.33
  endloop
endfacet
facet normal -0.9743700647852368 -0.2249510543438591 0.0
  outer loop
    vertex -131.6629651780576 -2.510512113968228 173.33
    vertex -131.4563792816505 -3.405333940222839 174.6
    vertex -131.6629651780576 -2.510512113968228 174.6
  endloop
endfacet
facet normal -0.9876883405951387 -0.1564344650402254 0.0
  outer loop
    vertex -131.6629651780576 -2.510512113968228 174.6
    vertex -131.80662822637518 -1.6034593250501574 173.33
    vertex -131.6629651780576 -2.510512113968228 173.33
  endloop
endfacet
facet normal -0.9876883405951387 -0.1564344650402254 0.0
  outer loop
    vertex -131.80662822637518 -1.6034593250501574 173.33
    vertex -131.6629651780576 -2.510512113968228 174.6
    vertex -131.80662822637518 -1.6034593250501574 174.6
  endloop
endfacet
facet normal -0.920504853452439 0.3907311284892771 0.0
  outer loop
    vertex -131.03080438750894 4.715118785757469 174.6
    vertex -130.67197281559856 5.5604729933747725 173.33
    vertex -131.03080438750894 4.715118785757469 173.33
  endloop
endfacet
facet normal -0.920504853452439 0.3907311284892771 0.0
  outer loop
    vertex -130.67197281559856 5.5604729933747725 173.33
    vertex -131.03080438750894 4.715118785757469 174.6
    vertex -130.67197281559856 5.5604729933747725 174.6
  endloop
endfacet
facet normal -0.7771459614569672 0.6293203910498422 0.0
  outer loop
    vertex -129.25530713279417 7.91820062261616 174.6
    vertex -128.67736488890696 8.631899856233936 173.33
    vertex -129.25530713279417 7.918200622616163 173.33
  endloop
endfacet
facet normal -0.7771459614569672 0.6293203910498422 0.0
  outer loop
    vertex -128.67736488890696 8.631899856233936 173.33
    vertex -129.25530713279417 7.91820062261616 174.6
    vertex -128.677364888907 8.631899856233936 174.6
  endloop
endfacet
facet normal -0.8571673007021094 0.515038074910059 0.0
  outer loop
    vertex -130.25504641077438 6.37873713550514 174.6
    vertex -129.78205639657145 7.16592471149975 173.33
    vertex -130.25504641077438 6.378737135505142 173.33
  endloop
endfacet
facet normal -0.8571673007021094 0.515038074910059 0.0
  outer loop
    vertex -129.78205639657145 7.16592471149975 173.33
    vertex -130.25504641077438 6.37873713550514 174.6
    vertex -129.78205639657145 7.16592471149975 174.6
  endloop
endfacet
facet normal -0.8191520442889897 0.5735764363510494 0.0
  outer loop
    vertex -129.78205639657145 7.16592471149975 174.6
    vertex -129.25530713279417 7.918200622616163 173.33
    vertex -129.78205639657145 7.16592471149975 173.33
  endloop
endfacet
facet normal -0.8191520442889897 0.5735764363510494 0.0
  outer loop
    vertex -129.25530713279417 7.918200622616163 173.33
    vertex -129.78205639657145 7.16592471149975 174.6
    vertex -129.25530713279417 7.91820062261616 174.6
  endloop
endfacet
facet normal -0.731353701619167 0.6819983600625024 0.0
  outer loop
    vertex -128.677364888907 8.631899856233936 174.6
    vertex -128.05104534142757 9.30354534142767 173.33
    vertex -128.67736488890696 8.631899856233936 173.33
  endloop
endfacet
facet normal -0.731353701619167 0.6819983600625024 0.0
  outer loop
    vertex -128.05104534142757 9.30354534142767 173.33
    vertex -128.677364888907 8.631899856233936 174.6
    vertex -128.05104534142757 9.30354534142767 174.6
  endloop
endfacet
facet normal -0.9659258262890673 0.25881904510252457 0.0
  outer loop
    vertex -131.56748181639225 2.9597260122131406 174.6
    vertex -131.3297929351568 3.8467929933780334 173.33
    vertex -131.56748181639225 2.9597260122131432 173.33
  endloop
endfacet
facet normal -0.9659258262890673 0.25881904510252457 0.0
  outer loop
    vertex -131.3297929351568 3.8467929933780334 173.33
    vertex -131.56748181639225 2.9597260122131406 174.6
    vertex -131.3297929351568 3.8467929933780307 174.6
  endloop
endfacet
facet normal -0.945518575599315 0.3255681544571624 0.0
  outer loop
    vertex -131.3297929351568 3.8467929933780307 174.6
    vertex -131.03080438750894 4.715118785757469 173.33
    vertex -131.3297929351568 3.8467929933780334 173.33
  endloop
endfacet
facet normal -0.945518575599315 0.3255681544571624 0.0
  outer loop
    vertex -131.03080438750894 4.715118785757469 173.33
    vertex -131.3297929351568 3.8467929933780307 174.6
    vertex -131.03080438750894 4.715118785757469 174.6
  endloop
endfacet
facet normal -0.9816271834476625 0.1908089953765519 0.0
  outer loop
    vertex -131.7427130348783 2.058239543427367 174.6
    vertex -131.56748181639225 2.9597260122131432 173.33
    vertex -131.7427130348783 2.0582395434273697 173.33
  endloop
endfacet
facet normal -0.9816271834476625 0.1908089953765519 0.0
  outer loop
    vertex -131.56748181639225 2.9597260122131432 173.33
    vertex -131.7427130348783 2.058239543427367 174.6
    vertex -131.56748181639225 2.9597260122131406 174.6
  endloop
endfacet
facet normal -0.992546151641322 0.12186934340514884 0.0
  outer loop
    vertex -131.85463288173267 1.1467255384795303 174.6
    vertex -131.7427130348783 2.0582395434273697 173.33
    vertex -131.85463288173267 1.1467255384795332 173.33
  endloop
endfacet
facet normal -0.992546151641322 0.12186934340514884 0.0
  outer loop
    vertex -131.7427130348783 2.0582395434273697 173.33
    vertex -131.85463288173267 1.1467255384795303 174.6
    vertex -131.7427130348783 2.058239543427367 174.6
  endloop
endfacet
facet normal -0.8910065241883657 0.4539904997395512 0.0
  outer loop
    vertex -130.67197281559856 5.5604729933747725 174.6
    vertex -130.25504641077438 6.378737135505142 173.33
    vertex -130.67197281559856 5.5604729933747725 173.33
  endloop
endfacet
facet normal -0.8910065241883657 0.4539904997395512 0.0
  outer loop
    vertex -130.25504641077438 6.378737135505142 173.33
    vertex -130.67197281559856 5.5604729933747725 174.6
    vertex -130.25504641077438 6.37873713550514 174.6
  endloop
endfacet
facet normal -0.6819983600624983 0.7313537016191709 0.0
  outer loop
    vertex -127.37939985623389 9.929864888907016 174.6
    vertex -128.05104534142757 9.30354534142767 173.33
    vertex -128.05104534142757 9.30354534142767 174.6
  endloop
endfacet
facet normal -0.6819983600624983 0.7313537016191709 0.0
  outer loop
    vertex -128.05104534142757 9.30354534142767 173.33
    vertex -127.37939985623389 9.929864888907016 174.6
    vertex -127.37939985623389 9.92986488890702 173.33
  endloop
endfacet
facet normal -0.6293203910498382 0.7771459614569706 0.0
  outer loop
    vertex -126.66570062261611 10.50780713279421 174.6
    vertex -127.37939985623389 9.92986488890702 173.33
    vertex -127.37939985623389 9.929864888907016 174.6
  endloop
endfacet
facet normal -0.6293203910498382 0.7771459614569706 0.0
  outer loop
    vertex -127.37939985623389 9.92986488890702 173.33
    vertex -126.66570062261611 10.50780713279421 174.6
    vertex -126.66570062261611 10.50780713279421 173.33
  endloop
endfacet
facet normal -0.5735764363510478 0.8191520442889906 0.0
  outer loop
    vertex -125.91342471149969 11.034556396571498 174.6
    vertex -126.66570062261611 10.50780713279421 173.33
    vertex -126.66570062261611 10.50780713279421 174.6
  endloop
endfacet
facet normal -0.5735764363510478 0.8191520442889906 0.0
  outer loop
    vertex -126.66570062261611 10.50780713279421 173.33
    vertex -125.91342471149969 11.034556396571498 174.6
    vertex -125.91342471149969 11.0345563965715 173.33
  endloop
endfacet
facet normal -0.052335956242946485 0.9986295347545738 0.0
  outer loop
    vertex -118.9771248019766 13.155196094711654 174.6
    vertex -119.89422553847946 13.107132881732689 173.33
    vertex -119.89422553847947 13.107132881732682 174.6
  endloop
endfacet
facet normal -0.052335956242946485 0.9986295347545738 0.0
  outer loop
    vertex -119.89422553847946 13.107132881732689 173.33
    vertex -118.9771248019766 13.155196094711654 174.6
    vertex -118.9771248019766 13.155196094711654 173.33
  endloop
endfacet
facet normal 0.6018150231520495 0.798635510047292 0.0
  outer loop
    vertex -110.46740575087905 10.225064844081631 174.6
    vertex -111.20084011164197 10.777747277119106 173.33
    vertex -111.20084011164197 10.777747277119106 174.6
  endloop
endfacet
facet normal 0.6018150231520495 0.798635510047292 0.0
  outer loop
    vertex -111.20084011164197 10.777747277119106 173.33
    vertex -110.46740575087905 10.225064844081631 174.6
    vertex -110.46740575087905 10.225064844081635 173.33
  endloop
endfacet
facet normal 0.9063077870366497 0.42261826174070005 0.0
  outer loop
    vertex -107.02434895994875 5.973243803173137 174.6
    vertex -106.63623354215551 5.140927603759047 173.33
    vertex -107.02434895994875 5.973243803173137 173.33
  endloop
endfacet
facet normal 0.9063077870366497 0.42261826174070005 0.0
  outer loop
    vertex -106.63623354215551 5.140927603759047 173.33
    vertex -107.02434895994875 5.973243803173137 174.6
    vertex -106.63623354215551 5.140927603759047 174.6
  endloop
endfacet
facet normal 0.2923717047227364 0.9563047559630358 0.0
  outer loop
    vertex -114.46393467817627 12.440377002875309 174.6
    vertex -115.34216605977709 12.708879281650514 173.33
    vertex -115.34216605977709 12.708879281650514 174.6
  endloop
endfacet
facet normal 0.2923717047227364 0.9563047559630358 0.0
  outer loop
    vertex -115.34216605977709 12.708879281650514 173.33
    vertex -114.46393467817627 12.440377002875309 174.6
    vertex -114.46393467817627 12.440377002875312 173.33
  endloop
endfacet
facet normal 0.1564344650402324 0.9876883405951375 0.0
  outer loop
    vertex -116.23698788603168 12.91546517805759 174.6
    vertex -117.14404067494978 13.059128226375181 173.33
    vertex -117.14404067494978 13.059128226375176 174.6
  endloop
endfacet
facet normal 0.1564344650402324 0.9876883405951375 0.0
  outer loop
    vertex -117.14404067494978 13.059128226375181 173.33
    vertex -116.23698788603168 12.91546517805759 174.6
    vertex -116.23698788603168 12.91546517805759 173.33
  endloop
endfacet
facet normal 0.6560590289905083 0.7547095802227713 0.0
  outer loop
    vertex -109.77431117698566 9.622566922943731 174.6
    vertex -110.46740575087905 10.225064844081635 173.33
    vertex -110.46740575087905 10.225064844081631 174.6
  endloop
endfacet
facet normal 0.6560590289905083 0.7547095802227713 0.0
  outer loop
    vertex -110.46740575087905 10.225064844081635 173.33
    vertex -109.77431117698566 9.622566922943731 174.6
    vertex -109.77431117698566 9.622566922943731 173.33
  endloop
endfacet
facet normal 0.9563047559630372 0.2923717047227312 0.0
  outer loop
    vertex -106.30712299712464 4.283565321823668 174.6
    vertex -106.03862071834943 3.40533394022285 173.33
    vertex -106.30712299712464 4.28356532182367 173.33
  endloop
endfacet
facet normal 0.9563047559630372 0.2923717047227312 0.0
  outer loop
    vertex -106.03862071834943 3.40533394022285 173.33
    vertex -106.30712299712464 4.283565321823668 174.6
    vertex -106.03862071834943 3.4053339402228473 174.6
  endloop
endfacet
facet normal 0.017452406437284167 0.9998476951563914 0.0
  outer loop
    vertex -118.05890535652031 13.139168514672862 174.6
    vertex -118.9771248019766 13.155196094711654 173.33
    vertex -118.9771248019766 13.155196094711654 174.6
  endloop
endfacet
facet normal 0.017452406437284167 0.9998476951563914 0.0
  outer loop
    vertex -118.9771248019766 13.155196094711654 173.33
    vertex -118.05890535652031 13.139168514672862 174.6
    vertex -118.05890535652031 13.139168514672862 173.33
  endloop
endfacet
facet normal 0.9743700647852339 0.22495105434387108 0.0
  outer loop
    vertex -106.03862071834943 3.4053339402228473 174.6
    vertex -105.83203482194236 2.5105121139682405 173.33
    vertex -106.03862071834943 3.40533394022285 173.33
  endloop
endfacet
facet normal 0.9743700647852339 0.22495105434387108 0.0
  outer loop
    vertex -105.83203482194236 2.5105121139682405 173.33
    vertex -106.03862071834943 3.4053339402228473 174.6
    vertex -105.83203482194236 2.510512113968238 174.6
  endloop
endfacet
facet normal -0.3255681544571578 0.9455185755993164 0.0
  outer loop
    vertex -122.59429299337796 12.58229293515683 174.6
    vertex -123.4626187857574 12.283304387508956 173.33
    vertex -123.4626187857574 12.283304387508954 174.6
  endloop
endfacet
facet normal -0.3255681544571578 0.9455185755993164 0.0
  outer loop
    vertex -123.4626187857574 12.283304387508956 173.33
    vertex -122.59429299337796 12.58229293515683 174.6
    vertex -122.59429299337796 12.58229293515683 173.33
  endloop
endfacet
facet normal 0.42261826174069894 0.9063077870366503 0.0
  outer loop
    vertex -112.7742561968268 11.723151040051174 174.6
    vertex -113.60657239624089 12.111266457844428 173.33
    vertex -113.60657239624092 12.111266457844424 174.6
  endloop
endfacet
facet normal 0.42261826174069894 0.9063077870366503 0.0
  outer loop
    vertex -113.60657239624089 12.111266457844428 173.33
    vertex -112.7742561968268 11.723151040051174 174.6
    vertex -112.7742561968268 11.723151040051174 173.33
  endloop
endfacet
facet normal 0.8386705679454232 0.5446390350150284 0.0
  outer loop
    vertex -107.96975272288084 7.546659888357954 174.6
    vertex -107.46957839120213 6.776458959206536 173.33
    vertex -107.96975272288084 7.546659888357957 173.33
  endloop
endfacet
facet normal 0.8386705679454232 0.5446390350150284 0.0
  outer loop
    vertex -107.46957839120213 6.776458959206536 173.33
    vertex -107.96975272288084 7.546659888357954 174.6
    vertex -107.46957839120213 6.776458959206534 174.6
  endloop
endfacet
facet normal -0.2588190451025232 0.9659258262890676 0.0
  outer loop
    vertex -121.70722601221308 12.819981816392279 174.6
    vertex -122.59429299337796 12.58229293515683 173.33
    vertex -122.59429299337796 12.58229293515683 174.6
  endloop
endfacet
facet normal -0.2588190451025232 0.9659258262890676 0.0
  outer loop
    vertex -122.59429299337796 12.58229293515683 173.33
    vertex -121.70722601221308 12.819981816392279 174.6
    vertex -121.70722601221308 12.819981816392279 173.33
  endloop
endfacet
facet normal 0.8746197071393972 0.48480962024633456 0.0
  outer loop
    vertex -107.46957839120213 6.776458959206534 174.6
    vertex -107.02434895994875 5.973243803173137 173.33
    vertex -107.46957839120213 6.776458959206536 173.33
  endloop
endfacet
facet normal 0.8746197071393972 0.48480962024633456 0.0
  outer loop
    vertex -107.02434895994875 5.973243803173137 173.33
    vertex -107.46957839120213 6.776458959206534 174.6
    vertex -107.02434895994875 5.973243803173137 174.6
  endloop
endfacet
facet normal 0.9335804264972025 0.35836794954529855 0.0
  outer loop
    vertex -106.63623354215551 5.140927603759047 174.6
    vertex -106.30712299712464 4.28356532182367 173.33
    vertex -106.63623354215551 5.140927603759047 173.33
  endloop
endfacet
facet normal 0.9335804264972025 0.35836794954529855 0.0
  outer loop
    vertex -106.30712299712464 4.28356532182367 173.33
    vertex -106.63623354215551 5.140927603759047 174.6
    vertex -106.30712299712464 4.283565321823668 174.6
  endloop
endfacet
facet normal -0.12186934340514759 0.992546151641322 0.0
  outer loop
    vertex -119.89422553847947 13.107132881732682 174.6
    vertex -120.80573954342731 12.995213034878326 173.33
    vertex -120.80573954342731 12.995213034878326 174.6
  endloop
endfacet
facet normal -0.12186934340514759 0.992546151641322 0.0
  outer loop
    vertex -120.80573954342731 12.995213034878326 173.33
    vertex -119.89422553847947 13.107132881732682 174.6
    vertex -119.89422553847946 13.107132881732689 173.33
  endloop
endfacet
facet normal 0.48480962024633634 0.8746197071393962 0.0
  outer loop
    vertex -111.9710410407934 11.277921608797808 174.6
    vertex -112.7742561968268 11.723151040051174 173.33
    vertex -112.7742561968268 11.723151040051174 174.6
  endloop
endfacet
facet normal 0.48480962024633634 0.8746197071393962 0.0
  outer loop
    vertex -112.7742561968268 11.723151040051174 173.33
    vertex -111.9710410407934 11.277921608797808 174.6
    vertex -111.9710410407934 11.277921608797811 173.33
  endloop
endfacet
facet normal 0.35836794954530277 0.9335804264972009 0.0
  outer loop
    vertex -113.60657239624092 12.111266457844424 174.6
    vertex -114.46393467817627 12.440377002875312 173.33
    vertex -114.46393467817627 12.440377002875309 174.6
  endloop
endfacet
facet normal 0.35836794954530277 0.9335804264972009 0.0
  outer loop
    vertex -114.46393467817627 12.440377002875312 173.33
    vertex -113.60657239624092 12.111266457844424 174.6
    vertex -113.60657239624089 12.111266457844428 173.33
  endloop
endfacet
facet normal 0.7547095802227728 0.6560590289905065 0.0
  outer loop
    vertex -109.12493307705621 8.973188823014278 174.6
    vertex -108.52243515591832 8.280094249120898 173.33
    vertex -109.12493307705621 8.97318882301428 173.33
  endloop
endfacet
facet normal 0.7547095802227728 0.6560590289905065 0.0
  outer loop
    vertex -108.52243515591832 8.280094249120898 173.33
    vertex -109.12493307705621 8.973188823014278 174.6
    vertex -108.52243515591832 8.280094249120898 174.6
  endloop
endfacet
facet normal -0.19080899537654444 0.9816271834476641 0.0
  outer loop
    vertex -120.80573954342731 12.995213034878326 174.6
    vertex -121.70722601221308 12.819981816392279 173.33
    vertex -121.70722601221308 12.819981816392279 174.6
  endloop
endfacet
facet normal -0.19080899537654444 0.9816271834476641 0.0
  outer loop
    vertex -121.70722601221308 12.819981816392279 173.33
    vertex -120.80573954342731 12.995213034878326 174.6
    vertex -120.80573954342731 12.995213034878326 173.33
  endloop
endfacet
facet normal -0.45399049973954747 0.8910065241883677 0.0
  outer loop
    vertex -124.3079729933747 11.924472815598577 174.6
    vertex -125.1262371355051 11.507546410774431 173.33
    vertex -125.1262371355051 11.507546410774431 174.6
  endloop
endfacet
facet normal -0.45399049973954747 0.8910065241883677 0.0
  outer loop
    vertex -125.1262371355051 11.507546410774431 173.33
    vertex -124.3079729933747 11.924472815598577 174.6
    vertex -124.3079729933747 11.92447281559858 173.33
  endloop
endfacet
facet normal 0.22495105434386292 0.9743700647852357 0.0
  outer loop
    vertex -115.34216605977709 12.708879281650514 174.6
    vertex -116.23698788603168 12.91546517805759 173.33
    vertex -116.23698788603168 12.91546517805759 174.6
  endloop
endfacet
facet normal 0.22495105434386292 0.9743700647852357 0.0
  outer loop
    vertex -116.23698788603168 12.91546517805759 173.33
    vertex -115.34216605977709 12.708879281650514 174.6
    vertex -115.34216605977709 12.708879281650514 173.33
  endloop
endfacet
facet normal -0.39073112848927666 0.9205048534524393 0.0
  outer loop
    vertex -123.4626187857574 12.283304387508954 174.6
    vertex -124.3079729933747 11.92447281559858 173.33
    vertex -124.3079729933747 11.924472815598577 174.6
  endloop
endfacet
facet normal -0.39073112848927666 0.9205048534524393 0.0
  outer loop
    vertex -124.3079729933747 11.92447281559858 173.33
    vertex -123.4626187857574 12.283304387508954 174.6
    vertex -123.4626187857574 12.283304387508956 173.33
  endloop
endfacet
facet normal 0.5446390350150253 0.8386705679454254 0.0
  outer loop
    vertex -111.20084011164197 10.777747277119106 174.6
    vertex -111.9710410407934 11.277921608797811 173.33
    vertex -111.9710410407934 11.277921608797808 174.6
  endloop
endfacet
facet normal 0.5446390350150253 0.8386705679454254 0.0
  outer loop
    vertex -111.9710410407934 11.277921608797811 173.33
    vertex -111.20084011164197 10.777747277119106 174.6
    vertex -111.20084011164197 10.777747277119106 173.33
  endloop
endfacet
facet normal 0.7071067811865485 0.7071067811865467 0.0
  outer loop
    vertex -109.77431117698566 9.622566922943731 174.6
    vertex -109.12493307705621 8.97318882301428 173.33
    vertex -109.77431117698566 9.622566922943731 173.33
  endloop
endfacet
facet normal 0.7071067811865485 0.7071067811865467 0.0
  outer loop
    vertex -109.12493307705621 8.97318882301428 173.33
    vertex -109.77431117698566 9.622566922943731 174.6
    vertex -109.12493307705621 8.973188823014278 174.6
  endloop
endfacet
facet normal -0.5150380749100546 0.857167300702112 0.0
  outer loop
    vertex -125.1262371355051 11.507546410774431 174.6
    vertex -125.91342471149969 11.0345563965715 173.33
    vertex -125.91342471149969 11.034556396571498 174.6
  endloop
endfacet
facet normal -0.5150380749100546 0.857167300702112 0.0
  outer loop
    vertex -125.91342471149969 11.0345563965715 173.33
    vertex -125.1262371355051 11.507546410774431 174.6
    vertex -125.1262371355051 11.507546410774431 173.33
  endloop
endfacet
facet normal 0.08715574274765509 0.996194698091746 0.0
  outer loop
    vertex -117.14404067494978 13.059128226375176 174.6
    vertex -118.05890535652031 13.139168514672862 173.33
    vertex -118.05890535652031 13.139168514672862 174.6
  endloop
endfacet
facet normal 0.08715574274765509 0.996194698091746 0.0
  outer loop
    vertex -118.05890535652031 13.139168514672862 173.33
    vertex -117.14404067494978 13.059128226375176 174.6
    vertex -117.14404067494978 13.059128226375181 173.33
  endloop
endfacet
facet normal 0.7986355100472923 0.601815023152049 0.0
  outer loop
    vertex -108.52243515591832 8.280094249120898 174.6
    vertex -107.96975272288084 7.546659888357957 173.33
    vertex -108.52243515591832 8.280094249120898 173.33
  endloop
endfacet
facet normal 0.7986355100472923 0.601815023152049 0.0
  outer loop
    vertex -107.96975272288084 7.546659888357957 173.33
    vertex -108.52243515591832 8.280094249120898 174.6
    vertex -107.96975272288084 7.546659888357954 174.6
  endloop
endfacet
facet normal 0.981627183447664 -0.19080899537654544 0.0
  outer loop
    vertex -105.83990257436466 -2.508982777820265 174.6
    vertex -105.92751818360767 -2.959726012213142 173.33
    vertex -105.83990257436466 -2.5089827778202594 173.33
  endloop
endfacet
facet normal 0.981627183447664 -0.19080899537654544 0.0
  outer loop
    vertex -105.92751818360767 -2.959726012213142 173.33
    vertex -105.83990257436466 -2.508982777820265 174.6
    vertex -105.92751818360767 -2.959726012213142 174.6
  endloop
endfacet
facet normal 0.9455185755993168 -0.3255681544571564 0.0
  outer loop
    vertex -106.16520706484312 -3.846792993378032 174.6
    vertex -106.464195612491 -4.715118785757465 173.33
    vertex -106.16520706484312 -3.846792993378032 173.33
  endloop
endfacet
facet normal 0.9455185755993168 -0.3255681544571564 0.0
  outer loop
    vertex -106.464195612491 -4.715118785757465 173.33
    vertex -106.16520706484312 -3.846792993378032 174.6
    vertex -106.464195612491 -4.715118785757465 174.6
  endloop
endfacet
facet normal 0.8571673007021107 -0.5150380749100573 0.0
  outer loop
    vertex -107.23995358922554 -6.378737135505147 174.6
    vertex -107.71294360342846 -7.165924711499753 173.33
    vertex -107.23995358922554 -6.378737135505147 173.33
  endloop
endfacet
facet normal 0.8571673007021107 -0.5150380749100573 0.0
  outer loop
    vertex -107.71294360342846 -7.165924711499753 173.33
    vertex -107.23995358922554 -6.378737135505147 174.6
    vertex -107.71294360342846 -7.165924711499753 174.6
  endloop
endfacet
facet normal 0.9659258262890681 -0.25881904510252174 0.0
  outer loop
    vertex -105.92751818360767 -2.959726012213142 174.6
    vertex -106.16520706484312 -3.846792993378032 173.33
    vertex -105.92751818360767 -2.959726012213142 173.33
  endloop
endfacet
facet normal 0.9659258262890681 -0.25881904510252174 0.0
  outer loop
    vertex -106.16520706484312 -3.846792993378032 173.33
    vertex -105.92751818360767 -2.959726012213142 174.6
    vertex -106.16520706484312 -3.846792993378032 174.6
  endloop
endfacet
facet normal 0.8910065241883677 -0.4539904997395476 0.0
  outer loop
    vertex -106.82302718440135 -5.560472993374772 174.6
    vertex -107.23995358922554 -6.378737135505147 173.33
    vertex -106.82302718440135 -5.560472993374772 173.33
  endloop
endfacet
facet normal 0.8910065241883677 -0.4539904997395476 0.0
  outer loop
    vertex -107.23995358922554 -6.378737135505147 173.33
    vertex -106.82302718440135 -5.560472993374772 174.6
    vertex -107.23995358922554 -6.378737135505147 174.6
  endloop
endfacet
facet normal 0.7771459614569697 -0.629320391049839 0.0
  outer loop
    vertex -108.23969286720576 -7.918200622616171 174.6
    vertex -108.81763511109293 -8.631899856233947 173.33
    vertex -108.23969286720575 -7.918200622616171 173.33
  endloop
endfacet
facet normal 0.7771459614569697 -0.629320391049839 0.0
  outer loop
    vertex -108.81763511109293 -8.631899856233947 173.33
    vertex -108.23969286720576 -7.918200622616171 174.6
    vertex -108.81763511109293 -8.631899856233947 174.6
  endloop
endfacet
facet normal 0.9205048534524389 -0.39073112848927727 0.0
  outer loop
    vertex -106.464195612491 -4.715118785757465 174.6
    vertex -106.82302718440135 -5.560472993374772 173.33
    vertex -106.464195612491 -4.715118785757465 173.33
  endloop
endfacet
facet normal 0.9205048534524389 -0.39073112848927727 0.0
  outer loop
    vertex -106.82302718440135 -5.560472993374772 173.33
    vertex -106.464195612491 -4.715118785757465 174.6
    vertex -106.82302718440135 -5.560472993374772 174.6
  endloop
endfacet
facet normal 0.8191520442889908 -0.5735764363510476 0.0
  outer loop
    vertex -107.71294360342846 -7.165924711499753 174.6
    vertex -108.23969286720575 -7.918200622616171 173.33
    vertex -107.71294360342846 -7.165924711499753 173.33
  endloop
endfacet
facet normal 0.8191520442889908 -0.5735764363510476 0.0
  outer loop
    vertex -108.23969286720575 -7.918200622616171 173.33
    vertex -107.71294360342846 -7.165924711499753 174.6
    vertex -108.23969286720576 -7.918200622616171 174.6
  endloop
endfacet
facet normal 0.7313537016191698 -0.6819983600624993 0.0
  outer loop
    vertex -108.81763511109293 -8.631899856233947 174.6
    vertex -109.44395465857235 -9.303545341427684 173.33
    vertex -108.81763511109293 -8.631899856233947 173.33
  endloop
endfacet
facet normal 0.7313537016191698 -0.6819983600624993 0.0
  outer loop
    vertex -109.44395465857235 -9.303545341427684 173.33
    vertex -108.81763511109293 -8.631899856233947 174.6
    vertex -109.44395465857235 -9.303545341427684 174.6
  endloop
endfacet
facet normal 0.5735764363510456 -0.8191520442889921 0.0
  outer loop
    vertex -110.82929937738388 -10.507807132794285 173.33
    vertex -111.58157528850028 -11.034556396571572 174.6
    vertex -111.58157528850028 -11.034556396571572 173.33
  endloop
endfacet
facet normal 0.5735764363510456 -0.8191520442889921 0.0
  outer loop
    vertex -111.58157528850028 -11.034556396571572 174.6
    vertex -110.82929937738388 -10.507807132794285 173.33
    vertex -110.82929937738388 -10.50780713279429 174.6
  endloop
endfacet
facet normal 0.6293203910498353 -0.7771459614569727 0.0
  outer loop
    vertex -110.11560014376607 -9.929864888907094 173.33
    vertex -110.82929937738388 -10.50780713279429 174.6
    vertex -110.82929937738388 -10.507807132794285 173.33
  endloop
endfacet
facet normal 0.6293203910498353 -0.7771459614569727 0.0
  outer loop
    vertex -110.82929937738388 -10.50780713279429 174.6
    vertex -110.11560014376607 -9.929864888907094 173.33
    vertex -110.11560014376607 -9.929864888907094 174.6
  endloop
endfacet
facet normal 0.6819983600624959 -0.7313537016191729 0.0
  outer loop
    vertex -109.44395465857235 -9.303545341427684 173.33
    vertex -110.11560014376607 -9.929864888907094 174.6
    vertex -110.11560014376607 -9.929864888907094 173.33
  endloop
endfacet
facet normal 0.6819983600624959 -0.7313537016191729 0.0
  outer loop
    vertex -110.11560014376607 -9.929864888907094 174.6
    vertex -109.44395465857235 -9.303545341427684 173.33
    vertex -109.44395465857235 -9.303545341427684 174.6
  endloop
endfacet
facet normal 0.0 0.0 -1.0
  outer loop
    vertex -118.05890535652031 13.139168514672862 173.33
    vertex -119.89422553847946 13.107132881732689 173.33
    vertex -118.9771248019766 13.155196094711654 173.33
  endloop
endfacet
facet normal 0.0 0.0 -1.0
  outer loop
    vertex -119.89422553847946 13.107132881732689 173.33
    vertex -118.05890535652031 13.139168514672862 173.33
    vertex -117.14404067494978 13.059128226375181 173.33
  endloop
endfacet
facet normal 0.0 0.0 -1.0
  outer loop
    vertex -119.89422553847946 13.107132881732689 173.33
    vertex -117.14404067494978 13.059128226375181 173.33
    vertex -120.80573954342731 12.995213034878326 173.33
  endloop
endfacet
facet normal 0.0 0.0 -1.0
  outer loop
    vertex -120.80573954342731 12.995213034878326 173.33
    vertex -117.14404067494978 13.059128226375181 173.33
    vertex -116.23698788603168 12.91546517805759 173.33
  endloop
endfacet
facet normal 0.0 0.0 -1.0
  outer loop
    vertex -120.80573954342731 12.995213034878326 173.33
    vertex -116.23698788603168 12.91546517805759 173.33
    vertex -121.70722601221308 12.819981816392279 173.33
  endloop
endfacet
facet normal 0.0 0.0 -1.0
  outer loop
    vertex -121.70722601221308 12.819981816392279 173.33
    vertex -116.23698788603168 12.91546517805759 173.33
    vertex -115.34216605977709 12.708879281650514 173.33
  endloop
endfacet
facet normal 0.0 0.0 -1.0
  outer loop
    vertex -121.70722601221308 12.819981816392279 173.33
    vertex -115.34216605977709 12.708879281650514 173.33
    vertex -122.59429299337796 12.58229293515683 173.33
  endloop
endfacet
facet normal 0.0 0.0 -1.0
  outer loop
    vertex -122.59429299337796 12.58229293515683 173.33
    vertex -115.34216605977709 12.708879281650514 173.33
    vertex -114.46393467817627 12.440377002875312 173.33
  endloop
endfacet
facet normal 0.0 0.0 -1.0
  outer loop
    vertex -122.59429299337796 12.58229293515683 173.33
    vertex -114.46393467817627 12.440377002875312 173.33
    vertex -123.4626187857574 12.283304387508956 173.33
  endloop
endfacet
facet normal 0.0 0.0 -1.0
  outer loop
    vertex -123.4626187857574 12.283304387508956 173.33
    vertex -114.46393467817627 12.440377002875312 173.33
    vertex -113.60657239624089 12.111266457844428 173.33
  endloop
endfacet
facet normal 0.0 0.0 -1.0
  outer loop
    vertex -123.4626187857574 12.283304387508956 173.33
    vertex -113.60657239624089 12.111266457844428 173.33
    vertex -124.3079729933747 11.92447281559858 173.33
  endloop
endfacet
facet normal 0.0 0.0 -1.0
  outer loop
    vertex -124.3079729933747 11.92447281559858 173.33
    vertex -113.60657239624089 12.111266457844428 173.33
    vertex -112.7742561968268 11.723151040051174 173.33
  endloop
endfacet
facet normal 0.0 0.0 -1.0
  outer loop
    vertex -124.3079729933747 11.92447281559858 173.33
    vertex -112.7742561968268 11.723151040051174 173.33
    vertex -125.1262371355051 11.507546410774431 173.33
  endloop
endfacet
facet normal 0.0 0.0 -1.0
  outer loop
    vertex -125.1262371355051 11.507546410774431 173.33
    vertex -112.7742561968268 11.723151040051174 173.33
    vertex -111.9710410407934 11.277921608797811 173.33
  endloop
endfacet
facet normal 0.0 0.0 -1.0
  outer loop
    vertex -125.1262371355051 11.507546410774431 173.33
    vertex -111.9710410407934 11.277921608797811 173.33
    vertex -125.91342471149969 11.0345563965715 173.33
  endloop
endfacet
facet normal 0.0 0.0 -1.0
  outer loop
    vertex -125.91342471149969 11.0345563965715 173.33
    vertex -111.9710410407934 11.277921608797811 173.33
    vertex -111.20084011164197 10.777747277119106 173.33
  endloop
endfacet
facet normal 0.0 0.0 -1.0
  outer loop
    vertex -125.91342471149969 11.0345563965715 173.33
    vertex -111.20084011164197 10.777747277119106 173.33
    vertex -126.66570062261611 10.50780713279421 173.33
  endloop
endfacet
facet normal 0.0 0.0 -1.0
  outer loop
    vertex -126.66570062261611 10.50780713279421 173.33
    vertex -111.20084011164197 10.777747277119106 173.33
    vertex -110.46740575087905 10.225064844081635 173.33
  endloop
endfacet
facet normal 0.0 0.0 -1.0
  outer loop
    vertex -126.66570062261611 10.50780713279421 173.33
    vertex -110.46740575087905 10.225064844081635 173.33
    vertex -127.37939985623389 9.92986488890702 173.33
  endloop
endfacet
facet normal 0.0 0.0 -1.0
  outer loop
    vertex -127.37939985623389 9.92986488890702 173.33
    vertex -110.46740575087905 10.225064844081635 173.33
    vertex -109.77431117698566 9.622566922943731 173.33
  endloop
endfacet
facet normal 0.0 0.0 -1.0
  outer loop
    vertex -127.37939985623389 9.92986488890702 173.33
    vertex -109.77431117698566 9.622566922943731 173.33
    vertex -128.05104534142757 9.30354534142767 173.33
  endloop
endfacet
facet normal 0.0 0.0 -1.0
  outer loop
    vertex -128.05104534142757 9.30354534142767 173.33
    vertex -109.77431117698566 9.622566922943731 173.33
    vertex -109.12493307705621 8.97318882301428 173.33
  endloop
endfacet
facet normal 0.0 0.0 -1.0
  outer loop
    vertex -128.05104534142757 9.30354534142767 173.33
    vertex -109.12493307705621 8.97318882301428 173.33
    vertex -128.67736488890696 8.631899856233936 173.33
  endloop
endfacet
facet normal 0.0 0.0 -1.0
  outer loop
    vertex -128.67736488890696 8.631899856233936 173.33
    vertex -109.12493307705621 8.97318882301428 173.33
    vertex -108.52243515591832 8.280094249120898 173.33
  endloop
endfacet
facet normal 0.0 0.0 -1.0
  outer loop
    vertex -128.67736488890696 8.631899856233936 173.33
    vertex -108.52243515591832 8.280094249120898 173.33
    vertex -129.25530713279417 7.918200622616163 173.33
  endloop
endfacet
facet normal 0.0 0.0 -1.0
  outer loop
    vertex -129.25530713279417 7.918200622616163 173.33
    vertex -108.52243515591832 8.280094249120898 173.33
    vertex -107.96975272288084 7.546659888357957 173.33
  endloop
endfacet
facet normal 0.0 0.0 -1.0
  outer loop
    vertex -129.25530713279417 7.918200622616163 173.33
    vertex -107.96975272288084 7.546659888357957 173.33
    vertex -129.78205639657145 7.16592471149975 173.33
  endloop
endfacet
facet normal 0.0 0.0 -1.0
  outer loop
    vertex -129.78205639657145 7.16592471149975 173.33
    vertex -107.96975272288084 7.546659888357957 173.33
    vertex -107.46957839120213 6.776458959206536 173.33
  endloop
endfacet
facet normal 0.0 0.0 -1.0
  outer loop
    vertex -129.78205639657145 7.16592471149975 173.33
    vertex -107.46957839120213 6.776458959206536 173.33
    vertex -130.25504641077438 6.378737135505142 173.33
  endloop
endfacet
facet normal 0.0 0.0 -1.0
  outer loop
    vertex -130.25504641077438 6.378737135505142 173.33
    vertex -107.46957839120213 6.776458959206536 173.33
    vertex -107.02434895994875 5.973243803173137 173.33
  endloop
endfacet
facet normal 0.0 0.0 -1.0
  outer loop
    vertex -130.25504641077438 6.378737135505142 173.33
    vertex -107.02434895994875 5.973243803173137 173.33
    vertex -130.67197281559856 5.5604729933747725 173.33
  endloop
endfacet
facet normal 0.0 0.0 -1.0
  outer loop
    vertex -130.67197281559856 5.5604729933747725 173.33
    vertex -107.02434895994875 5.973243803173137 173.33
    vertex -106.63623354215551 5.140927603759047 173.33
  endloop
endfacet
facet normal 0.0 0.0 -1.0
  outer loop
    vertex -130.67197281559856 5.5604729933747725 173.33
    vertex -106.63623354215551 5.140927603759047 173.33
    vertex -131.03080438750894 4.715118785757469 173.33
  endloop
endfacet
facet normal 0.0 0.0 -1.0
  outer loop
    vertex -131.03080438750894 4.715118785757469 173.33
    vertex -106.63623354215551 5.140927603759047 173.33
    vertex -106.30712299712464 4.28356532182367 173.33
  endloop
endfacet
facet normal 0.0 0.0 -1.0
  outer loop
    vertex -131.03080438750894 4.715118785757469 173.33
    vertex -106.30712299712464 4.28356532182367 173.33
    vertex -131.3297929351568 3.8467929933780334 173.33
  endloop
endfacet
facet normal 0.0 0.0 -1.0
  outer loop
    vertex -131.3297929351568 3.8467929933780334 173.33
    vertex -106.30712299712464 4.28356532182367 173.33
    vertex -106.03862071834943 3.40533394022285 173.33
  endloop
endfacet
facet normal 0.0 0.0 -1.0
  outer loop
    vertex -131.3297929351568 3.8467929933780334 173.33
    vertex -106.03862071834943 3.40533394022285 173.33
    vertex -131.56748181639225 2.9597260122131432 173.33
  endloop
endfacet
facet normal 0.0 0.0 -1.0
  outer loop
    vertex -131.56748181639225 2.9597260122131432 173.33
    vertex -106.03862071834943 3.40533394022285 173.33
    vertex -105.83203482194236 2.5105121139682405 173.33
  endloop
endfacet
facet normal 0.0 0.0 -1.0
  outer loop
    vertex -131.56748181639225 2.9597260122131432 173.33
    vertex -105.83203482194236 2.5105121139682405 173.33
    vertex -131.7427130348783 2.0582395434273697 173.33
  endloop
endfacet
facet normal 0.0 0.0 -1.0
  outer loop
    vertex -131.7427130348783 2.0582395434273697 173.33
    vertex -105.83203482194236 2.5105121139682405 173.33
    vertex -118.74749999999997 1.999999999999981 173.33
  endloop
endfacet
facet normal 0.0 0.0 -1.0
  outer loop
    vertex -131.7427130348783 2.0582395434273697 173.33
    vertex -118.74749999999997 1.999999999999981 173.33
    vertex -131.85463288173267 1.1467255384795332 173.33
  endloop
endfacet
facet normal 0.0 0.0 -1.0
  outer loop
    vertex -131.85463288173267 1.1467255384795332 173.33
    vertex -118.74749999999997 1.999999999999981 173.33
    vertex -119.26513809020501 1.9318516525781173 173.33
  endloop
endfacet
facet normal 0.0 0.0 -1.0
  outer loop
    vertex -131.85463288173267 1.1467255384795332 173.33
    vertex -119.26513809020501 1.9318516525781173 173.33
    vertex -119.74749999999997 1.7320508075688585 173.33
  endloop
endfacet
facet normal 0.0 0.0 -1.0
  outer loop
    vertex -131.85463288173267 1.1467255384795332 173.33
    vertex -119.74749999999997 1.7320508075688585 173.33
    vertex -120.16171356237307 1.414213562373076 173.33
  endloop
endfacet
facet normal 0.0 0.0 -1.0
  outer loop
    vertex -131.85463288173267 1.1467255384795332 173.33
    vertex -120.16171356237307 1.414213562373076 173.33
    vertex -120.47955080756884 0.9999999999999798 173.33
  endloop
endfacet
facet normal 0.0 0.0 -1.0
  outer loop
    vertex -131.85463288173267 1.1467255384795332 173.33
    vertex -120.47955080756884 0.9999999999999798 173.33
    vertex -131.90269609471162 0.22962480197667587 173.33
  endloop
endfacet
facet normal 0.0 0.0 -1.0
  outer loop
    vertex -131.90269609471162 0.22962480197667587 173.33
    vertex -120.47955080756884 0.9999999999999798 173.33
    vertex -120.67935165257809 0.5176380902050216 173.33
  endloop
endfacet
facet normal 0.0 0.0 -1.0
  outer loop
    vertex -131.90269609471162 0.22962480197667587 173.33
    vertex -120.67935165257809 0.5176380902050216 173.33
    vertex -120.74749999999996 -1.973976537783528e-14 173.33
  endloop
endfacet
facet normal 0.0 0.0 -1.0
  outer loop
    vertex -131.90269609471162 0.22962480197667587 173.33
    vertex -120.74749999999996 -1.973976537783528e-14 173.33
    vertex -131.88666851467283 -0.688594643479612 173.33
  endloop
endfacet
facet normal 0.0 0.0 -1.0
  outer loop
    vertex -131.88666851467283 -0.688594643479612 173.33
    vertex -120.74749999999996 -1.973976537783528e-14 173.33
    vertex -120.67935165257809 -0.5176380902050597 173.33
  endloop
endfacet
facet normal 0.0 0.0 -1.0
  outer loop
    vertex -131.88666851467283 -0.688594643479612 173.33
    vertex -120.67935165257809 -0.5176380902050597 173.33
    vertex -120.47955080756884 -1.000000000000018 173.33
  endloop
endfacet
facet normal 0.0 0.0 -1.0
  outer loop
    vertex -131.88666851467283 -0.688594643479612 173.33
    vertex -120.47955080756884 -1.000000000000018 173.33
    vertex -131.80662822637518 -1.6034593250501574 173.33
  endloop
endfacet
facet normal 0.0 0.0 -1.0
  outer loop
    vertex -131.80662822637518 -1.6034593250501574 173.33
    vertex -120.47955080756884 -1.000000000000018 173.33
    vertex -120.16171356237307 -1.4142135623731156 173.33
  endloop
endfacet
facet normal 0.0 0.0 -1.0
  outer loop
    vertex -131.80662822637518 -1.6034593250501574 173.33
    vertex -120.16171356237307 -1.4142135623731156 173.33
    vertex -119.74749999999997 -1.732050807568898 173.33
  endloop
endfacet
facet normal 0.0 0.0 -1.0
  outer loop
    vertex -131.80662822637518 -1.6034593250501574 173.33
    vertex -119.74749999999997 -1.732050807568898 173.33
    vertex -131.6629651780576 -2.510512113968228 173.33
  endloop
endfacet
facet normal 0.0 0.0 -1.0
  outer loop
    vertex -131.6629651780576 -2.510512113968228 173.33
    vertex -119.74749999999997 -1.732050807568898 173.33
    vertex -119.26513809020501 -1.9318516525781555 173.33
  endloop
endfacet
facet normal 0.0 0.0 -1.0
  outer loop
    vertex -131.6629651780576 -2.510512113968228 173.33
    vertex -119.26513809020501 -1.9318516525781555 173.33
    vertex -118.74749999999997 -2.000000000000016 173.33
  endloop
endfacet
facet normal 0.0 0.0 -1.0
  outer loop
    vertex -131.6629651780576 -2.510512113968228 173.33
    vertex -118.74749999999997 -2.000000000000016 173.33
    vertex -105.83990257436466 -2.5089827778202594 173.33
  endloop
endfacet
facet normal 0.0 0.0 -1.0
  outer loop
    vertex -131.6629651780576 -2.510512113968228 173.33
    vertex -105.83990257436466 -2.5089827778202594 173.33
    vertex -105.92751818360767 -2.959726012213142 173.33
  endloop
endfacet
facet normal 0.0 0.0 -1.0
  outer loop
    vertex -131.6629651780576 -2.510512113968228 173.33
    vertex -105.92751818360767 -2.959726012213142 173.33
    vertex -131.4563792816505 -3.405333940222839 173.33
  endloop
endfacet
facet normal 0.0 0.0 -1.0
  outer loop
    vertex -131.4563792816505 -3.405333940222839 173.33
    vertex -105.92751818360767 -2.959726012213142 173.33
    vertex -106.16520706484312 -3.846792993378032 173.33
  endloop
endfacet
facet normal 0.0 0.0 -1.0
  outer loop
    vertex -131.4563792816505 -3.405333940222839 173.33
    vertex -106.16520706484312 -3.846792993378032 173.33
    vertex -131.18787700287533 -4.283565321823661 173.33
  endloop
endfacet
facet normal 0.0 0.0 -1.0
  outer loop
    vertex -131.18787700287533 -4.283565321823661 173.33
    vertex -106.16520706484312 -3.846792993378032 173.33
    vertex -106.464195612491 -4.715118785757465 173.33
  endloop
endfacet
facet normal 0.0 0.0 -1.0
  outer loop
    vertex -131.18787700287533 -4.283565321823661 173.33
    vertex -106.464195612491 -4.715118785757465 173.33
    vertex -130.85876645784444 -5.140927603759038 173.33
  endloop
endfacet
facet normal 0.0 0.0 -1.0
  outer loop
    vertex -130.85876645784444 -5.140927603759038 173.33
    vertex -106.464195612491 -4.715118785757465 173.33
    vertex -106.82302718440135 -5.560472993374772 173.33
  endloop
endfacet
facet normal 0.0 0.0 -1.0
  outer loop
    vertex -130.85876645784444 -5.140927603759038 173.33
    vertex -106.82302718440135 -5.560472993374772 173.33
    vertex -130.4706510400512 -5.973243803173125 173.33
  endloop
endfacet
facet normal 0.0 0.0 -1.0
  outer loop
    vertex -130.4706510400512 -5.973243803173125 173.33
    vertex -106.82302718440135 -5.560472993374772 173.33
    vertex -107.23995358922554 -6.378737135505147 173.33
  endloop
endfacet
facet normal 0.0 0.0 -1.0
  outer loop
    vertex -130.4706510400512 -5.973243803173125 173.33
    vertex -107.23995358922554 -6.378737135505147 173.33
    vertex -130.02542160879784 -6.776458959206528 173.33
  endloop
endfacet
facet normal 0.0 0.0 -1.0
  outer loop
    vertex -130.02542160879784 -6.776458959206528 173.33
    vertex -107.23995358922554 -6.378737135505147 173.33
    vertex -107.71294360342846 -7.165924711499753 173.33
  endloop
endfacet
facet normal 0.0 0.0 -1.0
  outer loop
    vertex -130.02542160879784 -6.776458959206528 173.33
    vertex -107.71294360342846 -7.165924711499753 173.33
    vertex -129.52524727711912 -7.546659888357951 173.33
  endloop
endfacet
facet normal 0.0 0.0 -1.0
  outer loop
    vertex -129.52524727711912 -7.546659888357951 173.33
    vertex -107.71294360342846 -7.165924711499753 173.33
    vertex -108.23969286720575 -7.918200622616171 173.33
  endloop
endfacet
facet normal 0.0 0.0 -1.0
  outer loop
    vertex -129.52524727711912 -7.546659888357951 173.33
    vertex -108.23969286720575 -7.918200622616171 173.33
    vertex -128.97256484408166 -8.280094249120893 173.33
  endloop
endfacet
facet normal 0.0 0.0 -1.0
  outer loop
    vertex -128.97256484408166 -8.280094249120893 173.33
    vertex -108.23969286720575 -7.918200622616171 173.33
    vertex -108.81763511109293 -8.631899856233947 173.33
  endloop
endfacet
facet normal 0.0 0.0 -1.0
  outer loop
    vertex -128.97256484408166 -8.280094249120893 173.33
    vertex -108.81763511109293 -8.631899856233947 173.33
    vertex -128.37006692294375 -8.97318882301428 173.33
  endloop
endfacet
facet normal 0.0 0.0 -1.0
  outer loop
    vertex -128.37006692294375 -8.97318882301428 173.33
    vertex -108.81763511109293 -8.631899856233947 173.33
    vertex -109.44395465857235 -9.303545341427684 173.33
  endloop
endfacet
facet normal 0.0 0.0 -1.0
  outer loop
    vertex -128.37006692294375 -8.97318882301428 173.33
    vertex -109.44395465857235 -9.303545341427684 173.33
    vertex -127.72068882301431 -9.622566922943737 173.33
  endloop
endfacet
facet normal 0.0 0.0 -1.0
  outer loop
    vertex -127.72068882301431 -9.622566922943737 173.33
    vertex -109.44395465857235 -9.303545341427684 173.33
    vertex -110.11560014376607 -9.929864888907094 173.33
  endloop
endfacet
facet normal 0.0 0.0 -1.0
  outer loop
    vertex -127.72068882301431 -9.622566922943737 173.33
    vertex -110.11560014376607 -9.929864888907094 173.33
    vertex -127.02759424912094 -10.225064844081638 173.33
  endloop
endfacet
facet normal 0.0 0.0 -1.0
  outer loop
    vertex -127.02759424912094 -10.225064844081638 173.33
    vertex -110.11560014376607 -9.929864888907094 173.33
    vertex -110.82929937738388 -10.507807132794285 173.33
  endloop
endfacet
facet normal 0.0 0.0 -1.0
  outer loop
    vertex -127.02759424912094 -10.225064844081638 173.33
    vertex -110.82929937738388 -10.507807132794285 173.33
    vertex -126.294159888358 -10.777747277119108 173.33
  endloop
endfacet
facet normal 0.0 0.0 -1.0
  outer loop
    vertex -126.294159888358 -10.777747277119108 173.33
    vertex -110.82929937738388 -10.507807132794285 173.33
    vertex -111.58157528850028 -11.034556396571572 173.33
  endloop
endfacet
facet normal 0.0 0.0 -1.0
  outer loop
    vertex -126.294159888358 -10.777747277119108 173.33
    vertex -111.58157528850028 -11.034556396571572 173.33
    vertex -125.5239589592066 -11.277921608797822 173.33
  endloop
endfacet
facet normal 0.0 0.0 -1.0
  outer loop
    vertex -125.5239589592066 -11.277921608797822 173.33
    vertex -111.58157528850028 -11.034556396571572 173.33
    vertex -112.36876286449488 -11.507546410774495 173.33
  endloop
endfacet
facet normal 0.0 0.0 -1.0
  outer loop
    vertex -125.5239589592066 -11.277921608797822 173.33
    vertex -112.36876286449488 -11.507546410774495 173.33
    vertex -124.72074380317316 -11.723151040051183 173.33
  endloop
endfacet
facet normal 0.0 0.0 -1.0
  outer loop
    vertex -124.72074380317316 -11.723151040051183 173.33
    vertex -112.36876286449488 -11.507546410774495 173.33
    vertex -113.18702700662526 -11.924472815598644 173.33
  endloop
endfacet
facet normal 0.0 0.0 -1.0
  outer loop
    vertex -124.72074380317316 -11.723151040051183 173.33
    vertex -113.18702700662526 -11.924472815598644 173.33
    vertex -123.88842760375908 -12.111266457844446 173.33
  endloop
endfacet
facet normal 0.0 0.0 -1.0
  outer loop
    vertex -123.88842760375908 -12.111266457844446 173.33
    vertex -113.18702700662526 -11.924472815598644 173.33
    vertex -114.03238121424259 -12.283304387509016 173.33
  endloop
endfacet
facet normal 0.0 0.0 -1.0
  outer loop
    vertex -123.88842760375908 -12.111266457844446 173.33
    vertex -114.03238121424259 -12.283304387509016 173.33
    vertex -123.03106532182372 -12.440377002875334 173.33
  endloop
endfacet
facet normal 0.0 0.0 -1.0
  outer loop
    vertex -123.03106532182372 -12.440377002875334 173.33
    vertex -114.03238121424259 -12.283304387509016 173.33
    vertex -114.90070700662201 -12.582292935156877 173.33
  endloop
endfacet
facet normal 0.0 0.0 -1.0
  outer loop
    vertex -123.03106532182372 -12.440377002875334 173.33
    vertex -114.90070700662201 -12.582292935156877 173.33
    vertex -122.1528339402229 -12.708879281650532 173.33
  endloop
endfacet
facet normal 0.0 0.0 -1.0
  outer loop
    vertex -122.1528339402229 -12.708879281650532 173.33
    vertex -114.90070700662201 -12.582292935156877 173.33
    vertex -115.78777398778692 -12.819981816392321 173.33
  endloop
endfacet
facet normal 0.0 0.0 -1.0
  outer loop
    vertex -122.1528339402229 -12.708879281650532 173.33
    vertex -115.78777398778692 -12.819981816392321 173.33
    vertex -121.2580121139683 -12.91546517805761 173.33
  endloop
endfacet
facet normal 0.0 0.0 -1.0
  outer loop
    vertex -121.2580121139683 -12.91546517805761 173.33
    vertex -115.78777398778692 -12.819981816392321 173.33
    vertex -116.68926045657268 -12.995213034878372 173.33
  endloop
endfacet
facet normal 0.0 0.0 -1.0
  outer loop
    vertex -121.2580121139683 -12.91546517805761 173.33
    vertex -116.68926045657268 -12.995213034878372 173.33
    vertex -120.35095932505021 -13.059128226375211 173.33
  endloop
endfacet
facet normal 0.0 0.0 -1.0
  outer loop
    vertex -120.35095932505021 -13.059128226375211 173.33
    vertex -116.68926045657268 -12.995213034878372 173.33
    vertex -117.60077446152053 -13.10713288173273 173.33
  endloop
endfacet
facet normal 0.0 0.0 -1.0
  outer loop
    vertex -120.35095932505021 -13.059128226375211 173.33
    vertex -117.60077446152053 -13.10713288173273 173.33
    vertex -119.43609464347968 -13.139168514672898 173.33
  endloop
endfacet
facet normal 0.0 0.0 -1.0
  outer loop
    vertex -119.43609464347968 -13.139168514672898 173.33
    vertex -117.60077446152053 -13.10713288173273 173.33
    vertex -118.51787519802339 -13.155196094711691 173.33
  endloop
endfacet
facet normal 0.1305261922200524 -0.9914448613738103 -2.8303356234260642e-18
  outer loop
    vertex -118.74749999999997 1.999999999999981 173.33
    vertex -119.26513809020501 1.9318516525781173 174.6
    vertex -119.26513809020501 1.9318516525781173 173.33
  endloop
endfacet
facet normal 0.1305261922200524 -0.9914448613738103 -2.8303356234260642e-18
  outer loop
    vertex -119.26513809020501 1.9318516525781173 174.6
    vertex -118.74749999999997 1.999999999999981 173.33
    vertex -118.74749999999997 1.999999999999981 174.6
  endloop
endfacet
facet normal 0.130526192220051 0.9914448613738105 1.2220501419063489e-30
  outer loop
    vertex -118.74749999999997 -2.000000000000016 174.6
    vertex -119.26513809020501 -1.9318516525781555 173.33
    vertex -119.26513809020501 -1.9318516525781555 174.6
  endloop
endfacet
facet normal 0.130526192220051 0.9914448613738105 1.2220501419063489e-30
  outer loop
    vertex -119.26513809020501 -1.9318516525781555 173.33
    vertex -118.74749999999997 -2.000000000000016 174.6
    vertex -118.74749999999997 -2.000000000000016 173.33
  endloop
endfacet
facet normal 0.38268343236508806 0.9238795325112875 5.0083609813170035e-18
  outer loop
    vertex -119.26513809020501 -1.9318516525781555 174.6
    vertex -119.74749999999997 -1.732050807568898 173.33
    vertex -119.74749999999997 -1.732050807568898 174.6
  endloop
endfacet
facet normal 0.38268343236508806 0.9238795325112875 5.0083609813170035e-18
  outer loop
    vertex -119.74749999999997 -1.732050807568898 173.33
    vertex -119.26513809020501 -1.9318516525781555 174.6
    vertex -119.26513809020501 -1.9318516525781555 173.33
  endloop
endfacet
facet normal 0.6087614290087199 0.7933533402912357 -8.641199422919618e-31
  outer loop
    vertex -119.74749999999997 -1.732050807568898 174.6
    vertex -120.16171356237307 -1.4142135623731156 173.33
    vertex -120.16171356237307 -1.4142135623731156 174.6
  endloop
endfacet
facet normal 0.6087614290087199 0.7933533402912357 -8.641199422919618e-31
  outer loop
    vertex -120.16171356237307 -1.4142135623731156 173.33
    vertex -119.74749999999997 -1.732050807568898 174.6
    vertex -119.74749999999997 -1.732050807568898 173.33
  endloop
endfacet
facet normal 0.7933533402912349 0.608761429008721 0.0
  outer loop
    vertex -120.47955080756884 -1.000000000000018 174.6
    vertex -120.16171356237307 -1.4142135623731156 173.33
    vertex -120.47955080756884 -1.000000000000018 173.33
  endloop
endfacet
facet normal 0.7933533402912349 0.608761429008721 0.0
  outer loop
    vertex -120.16171356237307 -1.4142135623731156 173.33
    vertex -120.47955080756884 -1.000000000000018 174.6
    vertex -120.16171356237307 -1.4142135623731156 174.6
  endloop
endfacet
facet normal 0.9238795325112862 0.38268343236509117 2.358468741161009e-31
  outer loop
    vertex -120.67935165257809 -0.5176380902050597 174.6
    vertex -120.47955080756884 -1.000000000000018 173.33
    vertex -120.67935165257809 -0.5176380902050597 173.33
  endloop
endfacet
facet normal 0.9238795325112862 0.38268343236509117 2.358468741161009e-31
  outer loop
    vertex -120.47955080756884 -1.000000000000018 173.33
    vertex -120.67935165257809 -0.5176380902050597 174.6
    vertex -120.47955080756884 -1.000000000000018 174.6
  endloop
endfacet
facet normal 0.9914448613738105 0.1305261922200518 0.0
  outer loop
    vertex -120.74749999999996 -1.973976537783528e-14 174.6
    vertex -120.67935165257809 -0.5176380902050597 173.33
    vertex -120.74749999999996 -1.973976537783528e-14 173.33
  endloop
endfacet
facet normal 0.9914448613738105 0.1305261922200518 0.0
  outer loop
    vertex -120.67935165257809 -0.5176380902050597 173.33
    vertex -120.74749999999996 -1.973976537783528e-14 174.6
    vertex -120.67935165257809 -0.5176380902050597 174.6
  endloop
endfacet
facet normal 0.9914448613738105 -0.13052619222005113 1.222050141906349e-30
  outer loop
    vertex -120.67935165257809 0.5176380902050216 174.6
    vertex -120.74749999999996 -1.973976537783528e-14 173.33
    vertex -120.67935165257809 0.5176380902050216 173.33
  endloop
endfacet
facet normal 0.9914448613738105 -0.13052619222005113 1.222050141906349e-30
  outer loop
    vertex -120.74749999999996 -1.973976537783528e-14 173.33
    vertex -120.67935165257809 0.5176380902050216 174.6
    vertex -120.74749999999996 -1.973976537783528e-14 174.6
  endloop
endfacet
facet normal 0.9238795325112871 -0.38268343236508895 -1.1792343705804976e-31
  outer loop
    vertex -120.47955080756884 0.9999999999999798 174.6
    vertex -120.67935165257809 0.5176380902050216 173.33
    vertex -120.47955080756884 0.9999999999999798 173.33
  endloop
endfacet
facet normal 0.9238795325112871 -0.38268343236508895 -1.1792343705804976e-31
  outer loop
    vertex -120.67935165257809 0.5176380902050216 173.33
    vertex -120.47955080756884 0.9999999999999798 174.6
    vertex -120.67935165257809 0.5176380902050216 174.6
  endloop
endfacet
facet normal 0.793353340291236 -0.6087614290087195 -6.0270529407270255e-31
  outer loop
    vertex -120.16171356237307 1.414213562373076 174.6
    vertex -120.47955080756884 0.9999999999999798 173.33
    vertex -120.16171356237307 1.414213562373076 173.33
  endloop
endfacet
facet normal 0.793353340291236 -0.6087614290087195 -6.0270529407270255e-31
  outer loop
    vertex -120.47955080756884 0.9999999999999798 173.33
    vertex -120.16171356237307 1.414213562373076 174.6
    vertex -120.47955080756884 0.9999999999999798 174.6
  endloop
endfacet
facet normal 0.6087614290087211 -0.7933533402912348 6.600204638565969e-18
  outer loop
    vertex -119.74749999999997 1.7320508075688585 173.33
    vertex -120.16171356237307 1.414213562373076 174.6
    vertex -120.16171356237307 1.414213562373076 173.33
  endloop
endfacet
facet normal 0.6087614290087211 -0.7933533402912348 6.600204638565969e-18
  outer loop
    vertex -120.16171356237307 1.414213562373076 174.6
    vertex -119.74749999999997 1.7320508075688585 173.33
    vertex -119.74749999999997 1.7320508075688585 174.6
  endloop
endfacet
facet normal 0.38268343236509084 -0.9238795325112863 -1.3746163183848775e-30
  outer loop
    vertex -119.26513809020501 1.9318516525781173 173.33
    vertex -119.74749999999997 1.7320508075688585 174.6
    vertex -119.74749999999997 1.7320508075688585 173.33
  endloop
endfacet
facet normal 0.38268343236509084 -0.9238795325112863 -1.3746163183848775e-30
  outer loop
    vertex -119.74749999999997 1.7320508075688585 174.6
    vertex -119.26513809020501 1.9318516525781173 173.33
    vertex -119.26513809020501 1.9318516525781173 174.6
  endloop
endfacet
facet normal 0.03940218319034877 0.9992234324513383 -3.146376982215282e-17
  outer loop
    vertex -105.83990257436466 -2.5089827778202594 173.33
    vertex -118.74749999999997 -2.000000000000016 173.33
    vertex -118.74749999999997 -2.000000000000016 174.6
  endloop
endfacet
facet normal 0.039402183190349216 0.9992234324513383 4.4049277751013954e-15
  outer loop
    vertex -105.83990257436466 -2.5089827778202594 173.33
    vertex -118.74749999999997 -2.000000000000016 174.6
    vertex -105.83990257436466 -2.508982777820265 174.6
  endloop
endfacet
facet normal 0.039496352768185534 -0.9992197146363812 -2.262623818780187e-15
  outer loop
    vertex -105.83203482194236 2.510512113968238 174.6
    vertex -118.74749999999997 1.999999999999981 173.33
    vertex -105.83203482194236 2.5105121139682405 173.33
  endloop
endfacet
facet normal 0.03949635276818531 -0.9992197146363812 0.0
  outer loop
    vertex -105.83203482194236 2.510512113968238 174.6
    vertex -118.74749999999997 1.999999999999981 174.6
    vertex -118.74749999999997 1.999999999999981 173.33
  endloop
endfacet
endsolid CO_Cap_Sensor_Mount
