solid Wheel_Fork
facet normal -0.9942644548238431 0.0 -0.106949492162638
  outer loop
    vertex 341.25121431385895 -2048.2289255391406 30.2358120777791
    vertex 341.2765797806037 -2050.2289255391406 30.000000000000007
    vertex 341.25121431385895 -2050.2289255391406 30.2358120777791
  endloop
endfacet
facet normal -0.9942644548238431 0.0 -0.106949492162638
  outer loop
    vertex 341.2765797806037 -2050.2289255391406 30.000000000000007
    vertex 341.25121431385895 -2048.2289255391406 30.2358120777791
    vertex 341.2765797806037 -2048.2289255391406 30.000000000000007
  endloop
endfacet
facet normal 0.5897532045466116 0.0 -0.807583529876014
  outer loop
    vertex 339.8001186581769 -2048.2289255391406 30.877652780964738
    vertex 339.5892970520682 -2050.2289255391406 30.723696300686658
    vertex 339.5892970520682 -2048.2289255391406 30.723696300686658
  endloop
endfacet
facet normal 0.5897532045466116 0.0 -0.807583529876014
  outer loop
    vertex 339.5892970520682 -2050.2289255391406 30.723696300686658
    vertex 339.8001186581769 -2048.2289255391406 30.877652780964738
    vertex 339.8001186581769 -2050.2289255391406 30.877652780964738
  endloop
endfacet
facet normal 0.0 0.0 1.0
  outer loop
    vertex 342.27941563924907 -2047.4289255391407 40.99999999999999
    vertex 338.27941563924907 -2042.4289255391407 40.99999999999999
    vertex 338.27941563924907 -2047.4289255391407 40.99999999999999
  endloop
endfacet
facet normal 0.0 0.0 1.0
  outer loop
    vertex 338.27941563924907 -2042.4289255391407 40.99999999999999
    vertex 342.27941563924907 -2047.4289255391407 40.99999999999999
    vertex 342.27941563924907 -2042.4289255391407 40.99999999999999
  endloop
endfacet
facet normal 0.7786758494513568 0.0 -0.6274264271460103
  outer loop
    vertex 339.42550588720104 -2048.2289255391406 30.52042111348146
    vertex 339.5892970520682 -2050.2289255391406 30.723696300686658
    vertex 339.42550588720104 -2050.2289255391406 30.52042111348146
  endloop
endfacet
facet normal 0.7786758494513568 0.0 -0.6274264271460103
  outer loop
    vertex 339.5892970520682 -2050.2289255391406 30.723696300686658
    vertex 339.42550588720104 -2048.2289255391406 30.52042111348146
    vertex 339.5892970520682 -2048.2289255391406 30.723696300686658
  endloop
endfacet
facet normal 0.011836866839043891 0.005942794257658733 -0.9999122820427029
  outer loop
    vertex 339.27969754469547 -2039.6289255391405 30.023743028916712
    vertex 338.27941563924907 -2041.6289255391407 30.000000000000007
    vertex 338.27941563924907 -2039.6289255391405 30.000000000000007
  endloop
endfacet
facet normal 0.011836866839043891 0.005942794257658733 -0.9999122820427029
  outer loop
    vertex 338.27941563924907 -2041.6289255391407 30.000000000000007
    vertex 339.27969754469547 -2039.6289255391405 30.023743028916712
    vertex 339.2822514978945 -2041.6289255391407 30.000000000000007
  endloop
endfacet
facet normal -0.6274264271460159 0.0 -0.7786758494513524
  outer loop
    vertex 341.0031119399357 -2048.2289255391406 30.69011858718083
    vertex 340.79983675273047 -2050.2289255391406 30.853909752048036
    vertex 340.79983675273047 -2048.2289255391406 30.853909752048036
  endloop
endfacet
facet normal -0.6274264271460159 0.0 -0.7786758494513524
  outer loop
    vertex 340.79983675273047 -2050.2289255391406 30.853909752048036
    vertex 341.0031119399357 -2048.2289255391406 30.69011858718083
    vertex 341.0031119399357 -2050.2289255391406 30.69011858718083
  endloop
endfacet
facet normal 0.3606398533652894 0.0 -0.9327051496398328
  outer loop
    vertex 340.04360356147 -2048.2289255391406 30.971798674609882
    vertex 339.8001186581769 -2050.2289255391406 30.877652780964738
    vertex 339.8001186581769 -2048.2289255391406 30.877652780964738
  endloop
endfacet
facet normal 0.3606398533652894 0.0 -0.9327051496398328
  outer loop
    vertex 339.8001186581769 -2050.2289255391406 30.877652780964738
    vertex 340.04360356147 -2048.2289255391406 30.971798674609882
    vertex 340.04360356147 -2050.2289255391406 30.971798674609882
  endloop
endfacet
facet normal 0.10694949216263618 0.0 -0.9942644548238433
  outer loop
    vertex 340.3031586681658 -2039.6289255391405 30.999718094553597
    vertex 340.04360356147 -2041.6289255391407 30.971798674609882
    vertex 340.04360356147 -2039.6289255391405 30.971798674609882
  endloop
endfacet
facet normal 0.10694949216263618 0.0 -0.9942644548238433
  outer loop
    vertex 340.04360356147 -2041.6289255391407 30.971798674609882
    vertex 340.3031586681658 -2039.6289255391405 30.999718094553597
    vertex 340.3031586681658 -2041.6289255391407 30.999718094553597
  endloop
endfacet
facet normal -0.9327051496398353 0.0 -0.3606398533652828
  outer loop
    vertex 341.1570684202138 -2039.6289255391405 30.479296981072142
    vertex 341.25121431385895 -2041.6289255391407 30.2358120777791
    vertex 341.1570684202138 -2041.6289255391407 30.479296981072142
  endloop
endfacet
facet normal -0.9327051496398353 0.0 -0.3606398533652828
  outer loop
    vertex 341.25121431385895 -2041.6289255391407 30.2358120777791
    vertex 341.1570684202138 -2039.6289255391405 30.479296981072142
    vertex 341.25121431385895 -2039.6289255391405 30.2358120777791
  endloop
endfacet
facet normal 0.0 0.0 -1.0
  outer loop
    vertex 342.27941563924907 -2041.6289255391407 34.400000000000006
    vertex 338.27941563924907 -2048.2289255391406 34.400000000000006
    vertex 338.27941563924907 -2041.6289255391407 34.400000000000006
  endloop
endfacet
facet normal 0.0 0.0 -1.0
  outer loop
    vertex 338.27941563924907 -2048.2289255391406 34.400000000000006
    vertex 342.27941563924907 -2041.6289255391407 34.400000000000006
    vertex 342.27941563924907 -2048.2289255391406 34.400000000000006
  endloop
endfacet
facet normal 0.9145330220386569 0.0 -0.40451125027722235
  outer loop
    vertex 339.31990726078334 -2048.2289255391406 30.281680087429052
    vertex 339.42550588720104 -2050.2289255391406 30.52042111348146
    vertex 339.31990726078334 -2050.2289255391406 30.281680087429052
  endloop
endfacet
facet normal 0.9145330220386569 0.0 -0.40451125027722235
  outer loop
    vertex 339.42550588720104 -2050.2289255391406 30.52042111348146
    vertex 339.31990726078334 -2048.2289255391406 30.281680087429052
    vertex 339.42550588720104 -2048.2289255391406 30.52042111348146
  endloop
endfacet
facet normal -0.6274264271460159 0.0 -0.7786758494513524
  outer loop
    vertex 341.0031119399357 -2039.6289255391405 30.69011858718083
    vertex 340.79983675273047 -2041.6289255391407 30.853909752048036
    vertex 340.79983675273047 -2039.6289255391405 30.853909752048036
  endloop
endfacet
facet normal -0.6274264271460159 0.0 -0.7786758494513524
  outer loop
    vertex 340.79983675273047 -2041.6289255391407 30.853909752048036
    vertex 341.0031119399357 -2039.6289255391405 30.69011858718083
    vertex 341.0031119399357 -2041.6289255391407 30.69011858718083
  endloop
endfacet
facet normal 0.0 1.0 0.0
  outer loop
    vertex 338.27941563924907 -2039.6289255391405 35.400000000000006
    vertex 339.27969754469547 -2039.6289255391405 30.023743028916712
    vertex 338.27941563924907 -2039.6289255391405 30.000000000000007
  endloop
endfacet
facet normal 0.0 1.0 0.0
  outer loop
    vertex 339.27969754469547 -2039.6289255391405 30.023743028916712
    vertex 338.27941563924907 -2039.6289255391405 35.400000000000006
    vertex 339.31990726078334 -2039.6289255391405 30.281680087429052
  endloop
endfacet
facet normal 0.0 1.0 0.0
  outer loop
    vertex 339.31990726078334 -2039.6289255391405 30.281680087429052
    vertex 338.27941563924907 -2039.6289255391405 35.400000000000006
    vertex 339.42550588720104 -2039.6289255391405 30.52042111348146
  endloop
endfacet
facet normal 0.0 1.0 0.0
  outer loop
    vertex 339.42550588720104 -2039.6289255391405 30.52042111348146
    vertex 338.27941563924907 -2039.6289255391405 35.400000000000006
    vertex 339.5892970520682 -2039.6289255391405 30.723696300686658
  endloop
endfacet
facet normal 0.0 1.0 0.0
  outer loop
    vertex 339.5892970520682 -2039.6289255391405 30.723696300686658
    vertex 338.27941563924907 -2039.6289255391405 35.400000000000006
    vertex 339.8001186581769 -2039.6289255391405 30.877652780964738
  endloop
endfacet
facet normal 0.0 1.0 0.0
  outer loop
    vertex 339.8001186581769 -2039.6289255391405 30.877652780964738
    vertex 338.27941563924907 -2039.6289255391405 35.400000000000006
    vertex 340.04360356147 -2039.6289255391405 30.971798674609882
  endloop
endfacet
facet normal 0.0 1.0 0.0
  outer loop
    vertex 340.04360356147 -2039.6289255391405 30.971798674609882
    vertex 338.27941563924907 -2039.6289255391405 35.400000000000006
    vertex 340.3031586681658 -2039.6289255391405 30.999718094553597
  endloop
endfacet
facet normal 0.0 1.0 0.0
  outer loop
    vertex 341.25121431385895 -2039.6289255391405 30.2358120777791
    vertex 342.27941563924907 -2039.6289255391405 30.000000000000007
    vertex 341.2765797806037 -2039.6289255391405 30.000000000000007
  endloop
endfacet
facet normal 0.0 1.0 0.0
  outer loop
    vertex 342.27941563924907 -2039.6289255391405 30.000000000000007
    vertex 341.25121431385895 -2039.6289255391405 30.2358120777791
    vertex 342.27941563924907 -2039.6289255391405 35.400000000000006
  endloop
endfacet
facet normal 0.0 1.0 0.0
  outer loop
    vertex 342.27941563924907 -2039.6289255391405 35.400000000000006
    vertex 341.25121431385895 -2039.6289255391405 30.2358120777791
    vertex 341.1570684202138 -2039.6289255391405 30.479296981072142
  endloop
endfacet
facet normal 0.0 1.0 0.0
  outer loop
    vertex 342.27941563924907 -2039.6289255391405 35.400000000000006
    vertex 341.1570684202138 -2039.6289255391405 30.479296981072142
    vertex 341.0031119399357 -2039.6289255391405 30.69011858718083
  endloop
endfacet
facet normal 0.0 1.0 0.0
  outer loop
    vertex 342.27941563924907 -2039.6289255391405 35.400000000000006
    vertex 341.0031119399357 -2039.6289255391405 30.69011858718083
    vertex 340.79983675273047 -2039.6289255391405 30.853909752048036
  endloop
endfacet
facet normal 0.0 1.0 0.0
  outer loop
    vertex 342.27941563924907 -2039.6289255391405 35.400000000000006
    vertex 340.79983675273047 -2039.6289255391405 30.853909752048036
    vertex 340.5610957266781 -2039.6289255391405 30.95950837846575
  endloop
endfacet
facet normal 0.0 1.0 0.0
  outer loop
    vertex 342.27941563924907 -2039.6289255391405 35.400000000000006
    vertex 340.5610957266781 -2039.6289255391405 30.95950837846575
    vertex 340.3031586681658 -2039.6289255391405 30.999718094553597
  endloop
endfacet
facet normal 0.0 1.0 0.0
  outer loop
    vertex 342.27941563924907 -2039.6289255391405 35.400000000000006
    vertex 340.3031586681658 -2039.6289255391405 30.999718094553597
    vertex 338.27941563924907 -2039.6289255391405 35.400000000000006
  endloop
endfacet
facet normal 0.0 0.0 1.0
  outer loop
    vertex 342.27941563924907 -2042.4289255391407 35.400000000000006
    vertex 338.27941563924907 -2039.6289255391405 35.400000000000006
    vertex 338.27941563924907 -2042.4289255391407 35.400000000000006
  endloop
endfacet
facet normal 0.0 0.0 1.0
  outer loop
    vertex 338.27941563924907 -2039.6289255391405 35.400000000000006
    vertex 342.27941563924907 -2042.4289255391407 35.400000000000006
    vertex 342.27941563924907 -2039.6289255391405 35.400000000000006
  endloop
endfacet
facet normal 0.0 -1.0 0.0
  outer loop
    vertex 342.27941563924907 -2050.2289255391406 35.400000000000006
    vertex 341.2765797806037 -2050.2289255391406 30.000000000000007
    vertex 342.27941563924907 -2050.2289255391406 30.000000000000007
  endloop
endfacet
facet normal 0.0 -1.0 0.0
  outer loop
    vertex 341.2765797806037 -2050.2289255391406 30.000000000000007
    vertex 342.27941563924907 -2050.2289255391406 35.400000000000006
    vertex 341.25121431385895 -2050.2289255391406 30.2358120777791
  endloop
endfacet
facet normal 0.0 -1.0 0.0
  outer loop
    vertex 341.25121431385895 -2050.2289255391406 30.2358120777791
    vertex 342.27941563924907 -2050.2289255391406 35.400000000000006
    vertex 341.1570684202138 -2050.2289255391406 30.479296981072142
  endloop
endfacet
facet normal 0.0 -1.0 0.0
  outer loop
    vertex 341.1570684202138 -2050.2289255391406 30.479296981072142
    vertex 342.27941563924907 -2050.2289255391406 35.400000000000006
    vertex 341.0031119399357 -2050.2289255391406 30.69011858718083
  endloop
endfacet
facet normal 0.0 -1.0 0.0
  outer loop
    vertex 341.0031119399357 -2050.2289255391406 30.69011858718083
    vertex 342.27941563924907 -2050.2289255391406 35.400000000000006
    vertex 340.79983675273047 -2050.2289255391406 30.853909752048036
  endloop
endfacet
facet normal 0.0 -1.0 0.0
  outer loop
    vertex 340.79983675273047 -2050.2289255391406 30.853909752048036
    vertex 342.27941563924907 -2050.2289255391406 35.400000000000006
    vertex 340.5610957266781 -2050.2289255391406 30.95950837846575
  endloop
endfacet
facet normal 0.0 -1.0 0.0
  outer loop
    vertex 340.5610957266781 -2050.2289255391406 30.95950837846575
    vertex 342.27941563924907 -2050.2289255391406 35.400000000000006
    vertex 340.3031586681658 -2050.2289255391406 30.999718094553597
  endloop
endfacet
facet normal 0.0 -1.0 0.0
  outer loop
    vertex 339.31990726078334 -2050.2289255391406 30.281680087429052
    vertex 338.27941563924907 -2050.2289255391406 30.000000000000007
    vertex 339.2822514978945 -2050.2289255391406 30.000000000000007
  endloop
endfacet
facet normal 0.0 -1.0 0.0
  outer loop
    vertex 338.27941563924907 -2050.2289255391406 30.000000000000007
    vertex 339.31990726078334 -2050.2289255391406 30.281680087429052
    vertex 338.27941563924907 -2050.2289255391406 35.400000000000006
  endloop
endfacet
facet normal 0.0 -1.0 0.0
  outer loop
    vertex 338.27941563924907 -2050.2289255391406 35.400000000000006
    vertex 339.31990726078334 -2050.2289255391406 30.281680087429052
    vertex 339.42550588720104 -2050.2289255391406 30.52042111348146
  endloop
endfacet
facet normal 0.0 -1.0 0.0
  outer loop
    vertex 338.27941563924907 -2050.2289255391406 35.400000000000006
    vertex 339.42550588720104 -2050.2289255391406 30.52042111348146
    vertex 339.5892970520682 -2050.2289255391406 30.723696300686658
  endloop
endfacet
facet normal 0.0 -1.0 0.0
  outer loop
    vertex 338.27941563924907 -2050.2289255391406 35.400000000000006
    vertex 339.5892970520682 -2050.2289255391406 30.723696300686658
    vertex 339.8001186581769 -2050.2289255391406 30.877652780964738
  endloop
endfacet
facet normal 0.0 -1.0 0.0
  outer loop
    vertex 338.27941563924907 -2050.2289255391406 35.400000000000006
    vertex 339.8001186581769 -2050.2289255391406 30.877652780964738
    vertex 340.04360356147 -2050.2289255391406 30.971798674609882
  endloop
endfacet
facet normal 0.0 -1.0 0.0
  outer loop
    vertex 338.27941563924907 -2050.2289255391406 35.400000000000006
    vertex 340.04360356147 -2050.2289255391406 30.971798674609882
    vertex 340.3031586681658 -2050.2289255391406 30.999718094553597
  endloop
endfacet
facet normal 0.0 -1.0 0.0
  outer loop
    vertex 338.27941563924907 -2050.2289255391406 35.400000000000006
    vertex 340.3031586681658 -2050.2289255391406 30.999718094553597
    vertex 342.27941563924907 -2050.2289255391406 35.400000000000006
  endloop
endfacet
facet normal -0.9327051496398353 0.0 -0.3606398533652828
  outer loop
    vertex 341.1570684202138 -2048.2289255391406 30.479296981072142
    vertex 341.25121431385895 -2050.2289255391406 30.2358120777791
    vertex 341.1570684202138 -2050.2289255391406 30.479296981072142
  endloop
endfacet
facet normal -0.9327051496398353 0.0 -0.3606398533652828
  outer loop
    vertex 341.25121431385895 -2050.2289255391406 30.2358120777791
    vertex 341.1570684202138 -2048.2289255391406 30.479296981072142
    vertex 341.25121431385895 -2048.2289255391406 30.2358120777791
  endloop
endfacet
facet normal 0.5897532045466116 0.0 -0.807583529876014
  outer loop
    vertex 339.8001186581769 -2039.6289255391405 30.877652780964738
    vertex 339.5892970520682 -2041.6289255391407 30.723696300686658
    vertex 339.5892970520682 -2039.6289255391405 30.723696300686658
  endloop
endfacet
facet normal 0.5897532045466116 0.0 -0.807583529876014
  outer loop
    vertex 339.5892970520682 -2041.6289255391407 30.723696300686658
    vertex 339.8001186581769 -2039.6289255391405 30.877652780964738
    vertex 339.8001186581769 -2041.6289255391407 30.877652780964738
  endloop
endfacet
facet normal 1.0 0.0 0.0
  outer loop
    vertex 342.27941563924907 -2039.6289255391405 30.000000000000007
    vertex 342.27941563924907 -2041.6289255391407 34.400000000000006
    vertex 342.27941563924907 -2041.6289255391407 30.000000000000007
  endloop
endfacet
facet normal 1.0 0.0 0.0
  outer loop
    vertex 342.27941563924907 -2048.2289255391406 30.000000000000007
    vertex 342.27941563924907 -2050.2289255391406 35.400000000000006
    vertex 342.27941563924907 -2050.2289255391406 30.000000000000007
  endloop
endfacet
facet normal 1.0 0.0 0.0
  outer loop
    vertex 342.27941563924907 -2050.2289255391406 35.400000000000006
    vertex 342.27941563924907 -2048.2289255391406 30.000000000000007
    vertex 342.27941563924907 -2048.2289255391406 34.400000000000006
  endloop
endfacet
facet normal 1.0 0.0 0.0
  outer loop
    vertex 342.27941563924907 -2050.2289255391406 35.400000000000006
    vertex 342.27941563924907 -2048.2289255391406 34.400000000000006
    vertex 342.27941563924907 -2047.4289255391407 35.400000000000006
  endloop
endfacet
facet normal 1.0 0.0 0.0
  outer loop
    vertex 342.27941563924907 -2047.4289255391407 35.400000000000006
    vertex 342.27941563924907 -2048.2289255391406 34.400000000000006
    vertex 342.27941563924907 -2041.6289255391407 34.400000000000006
  endloop
endfacet
facet normal 1.0 0.0 0.0
  outer loop
    vertex 342.27941563924907 -2047.4289255391407 35.400000000000006
    vertex 342.27941563924907 -2041.6289255391407 34.400000000000006
    vertex 342.27941563924907 -2047.4289255391407 40.99999999999999
  endloop
endfacet
facet normal 1.0 0.0 0.0
  outer loop
    vertex 342.27941563924907 -2047.4289255391407 40.99999999999999
    vertex 342.27941563924907 -2041.6289255391407 34.400000000000006
    vertex 342.27941563924907 -2042.4289255391407 35.400000000000006
  endloop
endfacet
facet normal 1.0 0.0 0.0
  outer loop
    vertex 342.27941563924907 -2042.4289255391407 35.400000000000006
    vertex 342.27941563924907 -2041.6289255391407 34.400000000000006
    vertex 342.27941563924907 -2039.6289255391405 35.400000000000006
  endloop
endfacet
facet normal 1.0 0.0 0.0
  outer loop
    vertex 342.27941563924907 -2039.6289255391405 35.400000000000006
    vertex 342.27941563924907 -2041.6289255391407 34.400000000000006
    vertex 342.27941563924907 -2039.6289255391405 30.000000000000007
  endloop
endfacet
facet normal 1.0 0.0 0.0
  outer loop
    vertex 342.27941563924907 -2042.4289255391407 40.99999999999999
    vertex 342.27941563924907 -2047.4289255391407 40.99999999999999
    vertex 342.27941563924907 -2042.4289255391407 35.400000000000006
  endloop
endfacet
facet normal -0.40451125027722246 0.0 -0.9145330220386569
  outer loop
    vertex 340.79983675273047 -2048.2289255391406 30.853909752048036
    vertex 340.5610957266781 -2050.2289255391406 30.95950837846575
    vertex 340.5610957266781 -2048.2289255391406 30.95950837846575
  endloop
endfacet
facet normal -0.40451125027722246 0.0 -0.9145330220386569
  outer loop
    vertex 340.5610957266781 -2050.2289255391406 30.95950837846575
    vertex 340.79983675273047 -2048.2289255391406 30.853909752048036
    vertex 340.79983675273047 -2050.2289255391406 30.853909752048036
  endloop
endfacet
facet normal 0.011836866839043891 0.005942794257659805 -0.9999122820427029
  outer loop
    vertex 339.27969754469547 -2048.2289255391406 30.023743028916712
    vertex 338.27941563924907 -2050.2289255391406 30.000000000000007
    vertex 338.27941563924907 -2048.2289255391406 30.000000000000007
  endloop
endfacet
facet normal 0.011836866839043891 0.005942794257659805 -0.9999122820427029
  outer loop
    vertex 338.27941563924907 -2050.2289255391406 30.000000000000007
    vertex 339.27969754469547 -2048.2289255391406 30.023743028916712
    vertex 339.2822514978945 -2050.2289255391406 30.000000000000007
  endloop
endfacet
facet normal 0.3606398533652894 0.0 -0.9327051496398328
  outer loop
    vertex 340.04360356147 -2039.6289255391405 30.971798674609882
    vertex 339.8001186581769 -2041.6289255391407 30.877652780964738
    vertex 339.8001186581769 -2039.6289255391405 30.877652780964738
  endloop
endfacet
facet normal 0.3606398533652894 0.0 -0.9327051496398328
  outer loop
    vertex 339.8001186581769 -2041.6289255391407 30.877652780964738
    vertex 340.04360356147 -2039.6289255391405 30.971798674609882
    vertex 340.04360356147 -2041.6289255391407 30.971798674609882
  endloop
endfacet
facet normal -0.14234637632185182 -0.001476919342707798 -0.9898158050148993
  outer loop
    vertex 340.5610957266781 -2048.2289255391406 30.95950837846575
    vertex 340.3031586681658 -2050.2289255391406 30.999718094553597
    vertex 340.27941563924907 -2048.2289255391406 30.9971641413546
  endloop
endfacet
facet normal -0.14234637632185182 -0.001476919342707798 -0.9898158050148993
  outer loop
    vertex 340.3031586681658 -2050.2289255391406 30.999718094553597
    vertex 340.5610957266781 -2048.2289255391406 30.95950837846575
    vertex 340.5610957266781 -2050.2289255391406 30.95950837846575
  endloop
endfacet
facet normal 0.9898158050149097 0.0014769193427140819 -0.1423463763217787
  outer loop
    vertex 339.27969754469547 -2039.6289255391405 30.023743028916712
    vertex 339.31990726078334 -2041.6289255391407 30.281680087429052
    vertex 339.2822514978945 -2041.6289255391407 30.000000000000007
  endloop
endfacet
facet normal 0.9898158050149097 0.0014769193427140819 -0.1423463763217787
  outer loop
    vertex 339.31990726078334 -2041.6289255391407 30.281680087429052
    vertex 339.27969754469547 -2039.6289255391405 30.023743028916712
    vertex 339.31990726078334 -2039.6289255391405 30.281680087429052
  endloop
endfacet
facet normal -0.8075835298760081 0.0 -0.5897532045466193
  outer loop
    vertex 341.0031119399357 -2048.2289255391406 30.69011858718083
    vertex 341.1570684202138 -2050.2289255391406 30.479296981072142
    vertex 341.0031119399357 -2050.2289255391406 30.69011858718083
  endloop
endfacet
facet normal -0.8075835298760081 0.0 -0.5897532045466193
  outer loop
    vertex 341.1570684202138 -2050.2289255391406 30.479296981072142
    vertex 341.0031119399357 -2048.2289255391406 30.69011858718083
    vertex 341.1570684202138 -2048.2289255391406 30.479296981072142
  endloop
endfacet
facet normal 0.0 0.0 -1.0
  outer loop
    vertex 342.27941563924907 -2048.2289255391406 30.000000000000007
    vertex 341.2765797806037 -2050.2289255391406 30.000000000000007
    vertex 341.2765797806037 -2048.2289255391406 30.000000000000007
  endloop
endfacet
facet normal 0.0 0.0 -1.0
  outer loop
    vertex 341.2765797806037 -2050.2289255391406 30.000000000000007
    vertex 342.27941563924907 -2048.2289255391406 30.000000000000007
    vertex 342.27941563924907 -2050.2289255391406 30.000000000000007
  endloop
endfacet
facet normal 0.10694949216263722 1.439673845552053e-16 -0.9942644548238433
  outer loop
    vertex 340.27941563924907 -2048.2289255391406 30.9971641413546
    vertex 340.04360356147 -2050.2289255391406 30.971798674609882
    vertex 340.04360356147 -2048.2289255391406 30.971798674609882
  endloop
endfacet
facet normal 0.10694949216263722 1.439673845552053e-16 -0.9942644548238433
  outer loop
    vertex 340.04360356147 -2050.2289255391406 30.971798674609882
    vertex 340.27941563924907 -2048.2289255391406 30.9971641413546
    vertex 340.3031586681658 -2050.2289255391406 30.999718094553597
  endloop
endfacet
facet normal 0.0 0.0 -1.0
  outer loop
    vertex 342.27941563924907 -2039.6289255391405 30.000000000000007
    vertex 341.2765797806037 -2041.6289255391407 30.000000000000007
    vertex 341.2765797806037 -2039.6289255391405 30.000000000000007
  endloop
endfacet
facet normal 0.0 0.0 -1.0
  outer loop
    vertex 341.2765797806037 -2041.6289255391407 30.000000000000007
    vertex 342.27941563924907 -2039.6289255391405 30.000000000000007
    vertex 342.27941563924907 -2041.6289255391407 30.000000000000007
  endloop
endfacet
facet normal 0.9898158050149097 0.0014769193427143488 -0.14234637632177868
  outer loop
    vertex 339.27969754469547 -2048.2289255391406 30.023743028916712
    vertex 339.31990726078334 -2050.2289255391406 30.281680087429052
    vertex 339.2822514978945 -2050.2289255391406 30.000000000000007
  endloop
endfacet
facet normal 0.9898158050149097 0.0014769193427143488 -0.14234637632177868
  outer loop
    vertex 339.31990726078334 -2050.2289255391406 30.281680087429052
    vertex 339.27969754469547 -2048.2289255391406 30.023743028916712
    vertex 339.31990726078334 -2048.2289255391406 30.281680087429052
  endloop
endfacet
facet normal 0.9145330220386569 0.0 -0.40451125027722235
  outer loop
    vertex 339.31990726078334 -2039.6289255391405 30.281680087429052
    vertex 339.42550588720104 -2041.6289255391407 30.52042111348146
    vertex 339.31990726078334 -2041.6289255391407 30.281680087429052
  endloop
endfacet
facet normal 0.9145330220386569 0.0 -0.40451125027722235
  outer loop
    vertex 339.42550588720104 -2041.6289255391407 30.52042111348146
    vertex 339.31990726078334 -2039.6289255391405 30.281680087429052
    vertex 339.42550588720104 -2039.6289255391405 30.52042111348146
  endloop
endfacet
facet normal 0.0 1.0 0.0
  outer loop
    vertex 338.27941563924907 -2048.2289255391406 34.400000000000006
    vertex 339.27969754469547 -2048.2289255391406 30.023743028916712
    vertex 338.27941563924907 -2048.2289255391406 30.000000000000007
  endloop
endfacet
facet normal 0.0 1.0 0.0
  outer loop
    vertex 339.27969754469547 -2048.2289255391406 30.023743028916712
    vertex 338.27941563924907 -2048.2289255391406 34.400000000000006
    vertex 339.31990726078334 -2048.2289255391406 30.281680087429052
  endloop
endfacet
facet normal 0.0 1.0 0.0
  outer loop
    vertex 339.31990726078334 -2048.2289255391406 30.281680087429052
    vertex 338.27941563924907 -2048.2289255391406 34.400000000000006
    vertex 339.42550588720104 -2048.2289255391406 30.52042111348146
  endloop
endfacet
facet normal 0.0 1.0 0.0
  outer loop
    vertex 339.42550588720104 -2048.2289255391406 30.52042111348146
    vertex 338.27941563924907 -2048.2289255391406 34.400000000000006
    vertex 339.5892970520682 -2048.2289255391406 30.723696300686658
  endloop
endfacet
facet normal 0.0 1.0 0.0
  outer loop
    vertex 339.5892970520682 -2048.2289255391406 30.723696300686658
    vertex 338.27941563924907 -2048.2289255391406 34.400000000000006
    vertex 339.8001186581769 -2048.2289255391406 30.877652780964738
  endloop
endfacet
facet normal 0.0 1.0 0.0
  outer loop
    vertex 339.8001186581769 -2048.2289255391406 30.877652780964738
    vertex 338.27941563924907 -2048.2289255391406 34.400000000000006
    vertex 340.04360356147 -2048.2289255391406 30.971798674609882
  endloop
endfacet
facet normal 0.0 1.0 0.0
  outer loop
    vertex 340.04360356147 -2048.2289255391406 30.971798674609882
    vertex 338.27941563924907 -2048.2289255391406 34.400000000000006
    vertex 340.27941563924907 -2048.2289255391406 30.9971641413546
  endloop
endfacet
facet normal 0.0 1.0 0.0
  outer loop
    vertex 341.25121431385895 -2048.2289255391406 30.2358120777791
    vertex 342.27941563924907 -2048.2289255391406 30.000000000000007
    vertex 341.2765797806037 -2048.2289255391406 30.000000000000007
  endloop
endfacet
facet normal 0.0 1.0 0.0
  outer loop
    vertex 342.27941563924907 -2048.2289255391406 30.000000000000007
    vertex 341.25121431385895 -2048.2289255391406 30.2358120777791
    vertex 342.27941563924907 -2048.2289255391406 34.400000000000006
  endloop
endfacet
facet normal 0.0 1.0 0.0
  outer loop
    vertex 342.27941563924907 -2048.2289255391406 34.400000000000006
    vertex 341.25121431385895 -2048.2289255391406 30.2358120777791
    vertex 341.1570684202138 -2048.2289255391406 30.479296981072142
  endloop
endfacet
facet normal 0.0 1.0 0.0
  outer loop
    vertex 342.27941563924907 -2048.2289255391406 34.400000000000006
    vertex 341.1570684202138 -2048.2289255391406 30.479296981072142
    vertex 341.0031119399357 -2048.2289255391406 30.69011858718083
  endloop
endfacet
facet normal 0.0 1.0 0.0
  outer loop
    vertex 342.27941563924907 -2048.2289255391406 34.400000000000006
    vertex 341.0031119399357 -2048.2289255391406 30.69011858718083
    vertex 340.79983675273047 -2048.2289255391406 30.853909752048036
  endloop
endfacet
facet normal 0.0 1.0 0.0
  outer loop
    vertex 342.27941563924907 -2048.2289255391406 34.400000000000006
    vertex 340.79983675273047 -2048.2289255391406 30.853909752048036
    vertex 340.5610957266781 -2048.2289255391406 30.95950837846575
  endloop
endfacet
facet normal 0.0 1.0 0.0
  outer loop
    vertex 342.27941563924907 -2048.2289255391406 34.400000000000006
    vertex 340.5610957266781 -2048.2289255391406 30.95950837846575
    vertex 340.27941563924907 -2048.2289255391406 30.9971641413546
  endloop
endfacet
facet normal 0.0 1.0 0.0
  outer loop
    vertex 342.27941563924907 -2048.2289255391406 34.400000000000006
    vertex 340.27941563924907 -2048.2289255391406 30.9971641413546
    vertex 338.27941563924907 -2048.2289255391406 34.400000000000006
  endloop
endfacet
facet normal 0.0 0.0 1.0
  outer loop
    vertex 342.27941563924907 -2050.2289255391406 35.400000000000006
    vertex 338.27941563924907 -2047.4289255391407 35.400000000000006
    vertex 338.27941563924907 -2050.2289255391406 35.400000000000006
  endloop
endfacet
facet normal 0.0 0.0 1.0
  outer loop
    vertex 338.27941563924907 -2047.4289255391407 35.400000000000006
    vertex 342.27941563924907 -2050.2289255391406 35.400000000000006
    vertex 342.27941563924907 -2047.4289255391407 35.400000000000006
  endloop
endfacet
facet normal -0.8075835298760081 0.0 -0.5897532045466193
  outer loop
    vertex 341.0031119399357 -2039.6289255391405 30.69011858718083
    vertex 341.1570684202138 -2041.6289255391407 30.479296981072142
    vertex 341.0031119399357 -2041.6289255391407 30.69011858718083
  endloop
endfacet
facet normal -0.8075835298760081 0.0 -0.5897532045466193
  outer loop
    vertex 341.1570684202138 -2041.6289255391407 30.479296981072142
    vertex 341.0031119399357 -2039.6289255391405 30.69011858718083
    vertex 341.1570684202138 -2039.6289255391405 30.479296981072142
  endloop
endfacet
facet normal -1.0 -1.4131022299454088e-34 -8.923238612603544e-18
  outer loop
    vertex 338.27941563924907 -2042.4289255391407 40.99999999999999
    vertex 338.27941563924907 -2047.4289255391407 35.400000000000006
    vertex 338.27941563924907 -2047.4289255391407 40.99999999999999
  endloop
endfacet
facet normal -1.0 -1.4131022299454088e-34 -8.923238612603544e-18
  outer loop
    vertex 338.27941563924907 -2050.2289255391406 35.400000000000006
    vertex 338.27941563924907 -2048.2289255391406 34.400000000000006
    vertex 338.27941563924907 -2050.2289255391406 30.000000000000007
  endloop
endfacet
facet normal -1.0 -1.4131022299454088e-34 -8.923238612603544e-18
  outer loop
    vertex 338.27941563924907 -2048.2289255391406 34.400000000000006
    vertex 338.27941563924907 -2050.2289255391406 35.400000000000006
    vertex 338.27941563924907 -2047.4289255391407 35.400000000000006
  endloop
endfacet
facet normal -1.0 -1.4131022299454088e-34 -8.923238612603544e-18
  outer loop
    vertex 338.27941563924907 -2048.2289255391406 34.400000000000006
    vertex 338.27941563924907 -2047.4289255391407 35.400000000000006
    vertex 338.27941563924907 -2041.6289255391407 34.400000000000006
  endloop
endfacet
facet normal -1.0 -1.4131022299454088e-34 -8.923238612603544e-18
  outer loop
    vertex 338.27941563924907 -2041.6289255391407 34.400000000000006
    vertex 338.27941563924907 -2047.4289255391407 35.400000000000006
    vertex 338.27941563924907 -2042.4289255391407 35.400000000000006
  endloop
endfacet
facet normal -1.0 -1.4131022299454088e-34 -8.923238612603544e-18
  outer loop
    vertex 338.27941563924907 -2042.4289255391407 35.400000000000006
    vertex 338.27941563924907 -2047.4289255391407 35.400000000000006
    vertex 338.27941563924907 -2042.4289255391407 40.99999999999999
  endloop
endfacet
facet normal -1.0 -1.4131022299454088e-34 -8.923238612603544e-18
  outer loop
    vertex 338.27941563924907 -2041.6289255391407 34.400000000000006
    vertex 338.27941563924907 -2042.4289255391407 35.400000000000006
    vertex 338.27941563924907 -2039.6289255391405 35.400000000000006
  endloop
endfacet
facet normal -1.0 -1.4131022299454088e-34 -8.923238612603544e-18
  outer loop
    vertex 338.27941563924907 -2041.6289255391407 34.400000000000006
    vertex 338.27941563924907 -2039.6289255391405 35.400000000000006
    vertex 338.27941563924907 -2041.6289255391407 30.000000000000007
  endloop
endfacet
facet normal -1.0 -1.4131022299454088e-34 -8.923238612603544e-18
  outer loop
    vertex 338.27941563924907 -2041.6289255391407 30.000000000000007
    vertex 338.27941563924907 -2039.6289255391405 35.400000000000006
    vertex 338.27941563924907 -2039.6289255391405 30.000000000000007
  endloop
endfacet
facet normal -1.0 -1.4131022299454088e-34 -8.923238612603544e-18
  outer loop
    vertex 338.27941563924907 -2048.2289255391406 30.000000000000007
    vertex 338.27941563924907 -2050.2289255391406 30.000000000000007
    vertex 338.27941563924907 -2048.2289255391406 34.400000000000006
  endloop
endfacet
facet normal 0.0 -1.0 0.0
  outer loop
    vertex 342.27941563924907 -2047.4289255391407 40.99999999999999
    vertex 338.27941563924907 -2047.4289255391407 35.400000000000006
    vertex 342.27941563924907 -2047.4289255391407 35.400000000000006
  endloop
endfacet
facet normal 0.0 -1.0 0.0
  outer loop
    vertex 338.27941563924907 -2047.4289255391407 35.400000000000006
    vertex 342.27941563924907 -2047.4289255391407 40.99999999999999
    vertex 338.27941563924907 -2047.4289255391407 40.99999999999999
  endloop
endfacet
facet normal 0.0 -1.0 0.0
  outer loop
    vertex 342.27941563924907 -2041.6289255391407 34.400000000000006
    vertex 341.2765797806037 -2041.6289255391407 30.000000000000007
    vertex 342.27941563924907 -2041.6289255391407 30.000000000000007
  endloop
endfacet
facet normal 0.0 -1.0 0.0
  outer loop
    vertex 341.2765797806037 -2041.6289255391407 30.000000000000007
    vertex 342.27941563924907 -2041.6289255391407 34.400000000000006
    vertex 341.25121431385895 -2041.6289255391407 30.2358120777791
  endloop
endfacet
facet normal 0.0 -1.0 0.0
  outer loop
    vertex 341.25121431385895 -2041.6289255391407 30.2358120777791
    vertex 342.27941563924907 -2041.6289255391407 34.400000000000006
    vertex 341.1570684202138 -2041.6289255391407 30.479296981072142
  endloop
endfacet
facet normal 0.0 -1.0 0.0
  outer loop
    vertex 341.1570684202138 -2041.6289255391407 30.479296981072142
    vertex 342.27941563924907 -2041.6289255391407 34.400000000000006
    vertex 341.0031119399357 -2041.6289255391407 30.69011858718083
  endloop
endfacet
facet normal 0.0 -1.0 0.0
  outer loop
    vertex 341.0031119399357 -2041.6289255391407 30.69011858718083
    vertex 342.27941563924907 -2041.6289255391407 34.400000000000006
    vertex 340.79983675273047 -2041.6289255391407 30.853909752048036
  endloop
endfacet
facet normal 0.0 -1.0 0.0
  outer loop
    vertex 340.79983675273047 -2041.6289255391407 30.853909752048036
    vertex 342.27941563924907 -2041.6289255391407 34.400000000000006
    vertex 340.5610957266781 -2041.6289255391407 30.95950837846575
  endloop
endfacet
facet normal 0.0 -1.0 0.0
  outer loop
    vertex 340.5610957266781 -2041.6289255391407 30.95950837846575
    vertex 342.27941563924907 -2041.6289255391407 34.400000000000006
    vertex 340.3031586681658 -2041.6289255391407 30.999718094553597
  endloop
endfacet
facet normal 0.0 -1.0 0.0
  outer loop
    vertex 339.31990726078334 -2041.6289255391407 30.281680087429052
    vertex 338.27941563924907 -2041.6289255391407 30.000000000000007
    vertex 339.2822514978945 -2041.6289255391407 30.000000000000007
  endloop
endfacet
facet normal 0.0 -1.0 0.0
  outer loop
    vertex 338.27941563924907 -2041.6289255391407 30.000000000000007
    vertex 339.31990726078334 -2041.6289255391407 30.281680087429052
    vertex 338.27941563924907 -2041.6289255391407 34.400000000000006
  endloop
endfacet
facet normal 0.0 -1.0 0.0
  outer loop
    vertex 338.27941563924907 -2041.6289255391407 34.400000000000006
    vertex 339.31990726078334 -2041.6289255391407 30.281680087429052
    vertex 339.42550588720104 -2041.6289255391407 30.52042111348146
  endloop
endfacet
facet normal 0.0 -1.0 0.0
  outer loop
    vertex 338.27941563924907 -2041.6289255391407 34.400000000000006
    vertex 339.42550588720104 -2041.6289255391407 30.52042111348146
    vertex 339.5892970520682 -2041.6289255391407 30.723696300686658
  endloop
endfacet
facet normal 0.0 -1.0 0.0
  outer loop
    vertex 338.27941563924907 -2041.6289255391407 34.400000000000006
    vertex 339.5892970520682 -2041.6289255391407 30.723696300686658
    vertex 339.8001186581769 -2041.6289255391407 30.877652780964738
  endloop
endfacet
facet normal 0.0 -1.0 0.0
  outer loop
    vertex 338.27941563924907 -2041.6289255391407 34.400000000000006
    vertex 339.8001186581769 -2041.6289255391407 30.877652780964738
    vertex 340.04360356147 -2041.6289255391407 30.971798674609882
  endloop
endfacet
facet normal 0.0 -1.0 0.0
  outer loop
    vertex 338.27941563924907 -2041.6289255391407 34.400000000000006
    vertex 340.04360356147 -2041.6289255391407 30.971798674609882
    vertex 340.3031586681658 -2041.6289255391407 30.999718094553597
  endloop
endfacet
facet normal 0.0 -1.0 0.0
  outer loop
    vertex 338.27941563924907 -2041.6289255391407 34.400000000000006
    vertex 340.3031586681658 -2041.6289255391407 30.999718094553597
    vertex 342.27941563924907 -2041.6289255391407 34.400000000000006
  endloop
endfacet
facet normal -0.40451125027722246 0.0 -0.9145330220386569
  outer loop
    vertex 340.79983675273047 -2039.6289255391405 30.853909752048036
    vertex 340.5610957266781 -2041.6289255391407 30.95950837846575
    vertex 340.5610957266781 -2039.6289255391405 30.95950837846575
  endloop
endfacet
facet normal -0.40451125027722246 0.0 -0.9145330220386569
  outer loop
    vertex 340.5610957266781 -2041.6289255391407 30.95950837846575
    vertex 340.79983675273047 -2039.6289255391405 30.853909752048036
    vertex 340.79983675273047 -2041.6289255391407 30.853909752048036
  endloop
endfacet
facet normal -0.15402930018850822 0.0 -0.9880662805113017
  outer loop
    vertex 340.5610957266781 -2039.6289255391405 30.95950837846575
    vertex 340.3031586681658 -2041.6289255391407 30.999718094553597
    vertex 340.3031586681658 -2039.6289255391405 30.999718094553597
  endloop
endfacet
facet normal -0.15402930018850822 0.0 -0.9880662805113017
  outer loop
    vertex 340.3031586681658 -2041.6289255391407 30.999718094553597
    vertex 340.5610957266781 -2039.6289255391405 30.95950837846575
    vertex 340.5610957266781 -2041.6289255391407 30.95950837846575
  endloop
endfacet
facet normal -0.9942644548238431 0.0 -0.106949492162638
  outer loop
    vertex 341.25121431385895 -2039.6289255391405 30.2358120777791
    vertex 341.2765797806037 -2041.6289255391407 30.000000000000007
    vertex 341.25121431385895 -2041.6289255391407 30.2358120777791
  endloop
endfacet
facet normal -0.9942644548238431 0.0 -0.106949492162638
  outer loop
    vertex 341.2765797806037 -2041.6289255391407 30.000000000000007
    vertex 341.25121431385895 -2039.6289255391405 30.2358120777791
    vertex 341.2765797806037 -2039.6289255391405 30.000000000000007
  endloop
endfacet
facet normal 0.7786758494513568 0.0 -0.6274264271460103
  outer loop
    vertex 339.42550588720104 -2039.6289255391405 30.52042111348146
    vertex 339.5892970520682 -2041.6289255391407 30.723696300686658
    vertex 339.42550588720104 -2041.6289255391407 30.52042111348146
  endloop
endfacet
facet normal 0.7786758494513568 0.0 -0.6274264271460103
  outer loop
    vertex 339.5892970520682 -2041.6289255391407 30.723696300686658
    vertex 339.42550588720104 -2039.6289255391405 30.52042111348146
    vertex 339.5892970520682 -2039.6289255391405 30.723696300686658
  endloop
endfacet
facet normal 0.0 1.0 0.0
  outer loop
    vertex 338.27941563924907 -2042.4289255391407 40.99999999999999
    vertex 342.27941563924907 -2042.4289255391407 35.400000000000006
    vertex 338.27941563924907 -2042.4289255391407 35.400000000000006
  endloop
endfacet
facet normal 0.0 1.0 0.0
  outer loop
    vertex 342.27941563924907 -2042.4289255391407 35.400000000000006
    vertex 338.27941563924907 -2042.4289255391407 40.99999999999999
    vertex 342.27941563924907 -2042.4289255391407 40.99999999999999
  endloop
endfacet
endsolid Wheel_Fork
